#N canvas 39 146 450 300 10;
#X obj 122 204 bng 15 250 50 0 empty empty empty 17 7 0 10 -262144
-1 -1;
#X obj 166 197 outlet;
#X obj 165 60 inlet;
#X obj 215 60 inlet;
#X obj 215 83 unpack f f f;
#X obj 165 125 route;
#X obj 165 150 route;
#X obj 165 173 sel;
#X connect 2 0 5 0;
#X connect 3 0 4 0;
#X connect 4 0 5 1;
#X connect 4 1 6 1;
#X connect 4 2 7 1;
#X connect 5 0 6 0;
#X connect 6 0 7 0;
#X connect 7 0 0 0;
#X connect 7 0 1 0;
