#N canvas 0 23 638 307 8;
#X obj 126 92 line;
#X floatatom 126 112 15 0 0 0 - - -;
#X obj 129 32 hsl 128 15 0 100 0 0 empty empty empty -2 -8 0 10 -262144
-1 -1 0 0;
#X obj 126 172 bng 15 250 50 0 empty empty empty 17 7 0 10 -262144
-1 -1;
#X obj 146 172 bng 15 250 50 0 empty empty empty 17 7 0 10 -262144
-1 -1;
#X obj 126 131 int;
#X msg 126 192 0;
#X msg 151 192 1;
#X floatatom 143 245 5 0 0 0 - - -;
#X floatatom 203 245 5 0 0 0 - - -;
#X floatatom 263 245 5 0 0 0 - - -;
#X obj 126 13 inlet;
#X obj 85 274 outlet;
#X obj 145 274 outlet;
#X obj 205 274 outlet;
#X obj 265 274 outlet;
#X msg 126 72 \$1 100;
#X floatatom 323 245 5 0 0 0 - - -;
#X obj 325 274 outlet;
#X floatatom 383 245 5 0 0 0 - - -;
#X obj 385 274 outlet;
#X floatatom 443 245 5 0 0 0 - - -;
#X obj 445 274 outlet;
#X floatatom 503 245 5 0 0 0 - - -;
#X obj 505 274 outlet;
#X obj 143 225 pipe \$1;
#X obj 203 225 pipe \$1;
#X obj 263 225 pipe \$1;
#X obj 323 225 pipe \$1;
#X obj 383 225 pipe \$1;
#X obj 443 225 pipe \$1;
#X obj 503 225 pipe \$1;
#X obj 126 151 sel 0;
#X connect 0 0 1 0;
#X connect 1 0 5 0;
#X connect 2 0 16 0;
#X connect 3 0 6 0;
#X connect 4 0 7 0;
#X connect 5 0 32 0;
#X connect 6 0 12 0;
#X connect 6 0 25 0;
#X connect 7 0 12 0;
#X connect 7 0 25 0;
#X connect 8 0 13 0;
#X connect 8 0 26 0;
#X connect 9 0 14 0;
#X connect 9 0 27 0;
#X connect 10 0 15 0;
#X connect 10 0 28 0;
#X connect 11 0 2 0;
#X connect 16 0 0 0;
#X connect 17 0 18 0;
#X connect 17 0 29 0;
#X connect 19 0 20 0;
#X connect 19 0 30 0;
#X connect 21 0 22 0;
#X connect 21 0 31 0;
#X connect 23 0 24 0;
#X connect 25 0 8 0;
#X connect 26 0 9 0;
#X connect 27 0 10 0;
#X connect 28 0 17 0;
#X connect 29 0 19 0;
#X connect 30 0 21 0;
#X connect 31 0 23 0;
#X connect 32 0 3 0;
#X connect 32 1 4 0;
