#N canvas 0 100 860 590 8;
#X obj 21 5 loadbang;
#X msg 21 31 \; pd dsp 1;
#X floatatom 21 89 5 0 0 0 - - -;
#X floatatom 61 89 5 0 0 0 - - -;
#X floatatom 101 89 5 0 0 0 - - -;
#X floatatom 141 89 5 0 0 0 - - -;
#N canvas 931 231 877 300 system2 0;
#X obj 102 49 osc-rcv 55560 system2;
#X obj 101 101 cnv 15 318 41 empty empty System_2 2 6 0 8 -187896 -13330
0;
#X obj 137 244 outlet;
#X obj 187 244 outlet;
#X obj 237 244 outlet;
#X obj 287 244 outlet;
#X obj 337 244 outlet;
#X obj 387 244 outlet;
#X obj 437 244 outlet;
#X obj 487 244 outlet;
#X text 369 101 osc 55560;
#X obj 102 149 sel 0;
#X obj 74 195 line;
#X msg 74 175 0 \, 1 2000;
#X obj 162 149 sel 0;
#X obj 134 195 line;
#X msg 134 175 0 \, 1 2000;
#X obj 222 149 sel 0;
#X obj 194 195 line;
#X msg 194 175 0 \, 1 2000;
#X obj 282 149 sel 0;
#X obj 254 195 line;
#X msg 254 175 0 \, 1 2000;
#X obj 342 149 sel 0;
#X obj 314 195 line;
#X msg 314 175 0 \, 1 2000;
#X obj 402 149 sel 0;
#X obj 374 195 line;
#X msg 374 175 0 \, 1 2000;
#X obj 462 149 sel 0;
#X obj 434 195 line;
#X msg 434 175 0 \, 1 2000;
#X obj 522 149 sel 0;
#X obj 494 195 line;
#X msg 494 175 0 \, 1 2000;
#X obj 102 116 cnv 15 110 25 empty empty KUJAKU 2 4 0 8 -204800 -13330
0;
#X floatatom 102 126 5 0 0 0 - - -;
#X floatatom 142 126 5 0 0 0 - - -;
#X floatatom 182 126 5 0 0 0 - - -;
#X obj 221 116 cnv 15 110 25 empty empty KOJUKEI_1_2_3 2 4 0 8 -204800
-13330 0;
#X floatatom 222 126 5 0 0 0 - - -;
#X floatatom 262 126 5 0 0 0 - - -;
#X floatatom 302 126 5 0 0 0 - - -;
#X obj 341 116 cnv 15 35 25 empty empty KAKKO 2 4 0 8 -204800 -13330
0;
#X floatatom 342 126 5 0 0 0 - - -;
#X floatatom 382 126 5 0 0 0 - - -;
#X connect 0 0 36 0;
#X connect 0 1 37 0;
#X connect 0 2 38 0;
#X connect 0 3 40 0;
#X connect 0 4 41 0;
#X connect 0 5 42 0;
#X connect 0 6 44 0;
#X connect 0 7 45 0;
#X connect 11 1 13 0;
#X connect 12 0 2 0;
#X connect 13 0 12 0;
#X connect 14 1 16 0;
#X connect 15 0 3 0;
#X connect 16 0 15 0;
#X connect 17 1 19 0;
#X connect 18 0 4 0;
#X connect 19 0 18 0;
#X connect 20 1 22 0;
#X connect 21 0 5 0;
#X connect 22 0 21 0;
#X connect 23 1 25 0;
#X connect 24 0 6 0;
#X connect 25 0 24 0;
#X connect 26 1 28 0;
#X connect 27 0 7 0;
#X connect 28 0 27 0;
#X connect 29 1 31 0;
#X connect 30 0 8 0;
#X connect 31 0 30 0;
#X connect 32 1 34 0;
#X connect 33 0 9 0;
#X connect 34 0 33 0;
#X connect 36 0 11 0;
#X connect 37 0 14 0;
#X connect 38 0 17 0;
#X connect 40 0 20 0;
#X connect 41 0 23 0;
#X connect 42 0 26 0;
#X connect 44 0 29 0;
#X coords 0 -1 1 1 320 45 2 100 100;
#X restore 506 116 pd system2;
#N canvas 503 254 635 300 system2 0;
#X obj 101 101 cnv 15 318 41 empty empty System_1 2 6 0 8 -241457 -83269
0;
#X text 369 101 osc 55550;
#X obj 137 244 outlet;
#X obj 187 244 outlet;
#X obj 237 244 outlet;
#X obj 287 244 outlet;
#X obj 337 244 outlet;
#X obj 387 244 outlet;
#X obj 437 244 outlet;
#X obj 487 244 outlet;
#X obj 74 195 line;
#X obj 162 149 sel 0;
#X obj 134 195 line;
#X msg 134 175 0 \, 1 2000;
#X obj 222 149 sel 0;
#X obj 194 195 line;
#X msg 194 175 0 \, 1 2000;
#X obj 282 149 sel 0;
#X obj 254 195 line;
#X msg 254 175 0 \, 1 2000;
#X obj 342 149 sel 0;
#X obj 314 195 line;
#X msg 314 175 0 \, 1 2000;
#X obj 402 149 sel 0;
#X obj 374 195 line;
#X msg 374 175 0 \, 1 2000;
#X obj 462 149 sel 0;
#X obj 434 195 line;
#X msg 434 175 0 \, 1 2000;
#X obj 522 149 sel 0;
#X obj 494 195 line;
#X msg 494 175 0 \, 1 2000;
#X obj 102 69 osc-rcv 55550 system1;
#X obj 102 116 cnv 15 73 25 empty empty KAWAU 2 4 0 8 -262130 -83269
0;
#X floatatom 102 124 5 0 0 0 - - -;
#X floatatom 142 124 5 0 0 0 - - -;
#X obj 181 116 cnv 15 35 25 empty empty HATO_1 2 4 0 8 -262130 -83269
0;
#X floatatom 262 124 5 0 0 0 - - -;
#X floatatom 302 124 5 0 0 0 - - -;
#X floatatom 342 124 5 0 0 0 - - -;
#X floatatom 382 124 5 0 0 0 - - -;
#X floatatom 182 124 5 0 0 0 - - -;
#X obj 221 116 cnv 15 35 25 empty empty HATO_2 2 4 0 8 -262130 -83269
0;
#X floatatom 222 124 5 0 0 0 - - -;
#X msg 74 175 \$1 1000;
#X connect 10 0 2 0;
#X connect 11 1 13 0;
#X connect 12 0 3 0;
#X connect 13 0 12 0;
#X connect 14 1 16 0;
#X connect 15 0 4 0;
#X connect 16 0 15 0;
#X connect 17 1 19 0;
#X connect 18 0 5 0;
#X connect 19 0 18 0;
#X connect 20 1 22 0;
#X connect 21 0 6 0;
#X connect 22 0 21 0;
#X connect 23 1 25 0;
#X connect 24 0 7 0;
#X connect 25 0 24 0;
#X connect 26 1 28 0;
#X connect 27 0 8 0;
#X connect 28 0 27 0;
#X connect 29 1 31 0;
#X connect 30 0 9 0;
#X connect 31 0 30 0;
#X connect 32 0 34 0;
#X connect 32 1 35 0;
#X connect 32 2 41 0;
#X connect 32 3 43 0;
#X connect 32 4 37 0;
#X connect 32 5 38 0;
#X connect 32 6 39 0;
#X connect 32 7 40 0;
#X connect 34 0 44 0;
#X connect 35 0 11 0;
#X connect 37 0 20 0;
#X connect 38 0 23 0;
#X connect 39 0 26 0;
#X connect 40 0 29 0;
#X connect 41 0 14 0;
#X connect 43 0 17 0;
#X connect 44 0 10 0;
#X coords 0 -1 1 1 320 45 2 100 100;
#X restore 506 18 pd system2;
#X obj 21 417 delayA;
#X obj 237 417 delayA;
#X msg 506 225 20 0 200 0 200 0;
#X obj 24 132 hsl 128 15 0 100 0 0 empty empty empty -2 -8 0 10 -203904
-1 -1 27 0;
#N canvas 0 23 651 336 dmxled 0;
#X obj 112 270 osc-send localhost 12001 dmx;
#X obj 112 253 pack f f f f f f f f f f f f f f f f f f f f f f f f
;
#X obj 202 226 ledcolor 1000;
#X obj 292 226 ledcolor 1000;
#X obj 382 226 ledcolor 1000;
#X obj 112 183 osc-rcv-led 30000 led, f 24;
#X obj 112 226 ledcolor 1000;
#X text 111 111 NODE-RED;
#X text 111 126 kazenoutayomi1.local:1880;
#X text 111 146 DMX LED;
#X obj 153 66 inlet;
#X obj 243 66 inlet;
#X obj 333 66 inlet;
#X obj 423 66 inlet;
#X connect 1 0 0 0;
#X connect 2 0 1 6;
#X connect 2 1 1 7;
#X connect 2 2 1 8;
#X connect 2 3 1 9;
#X connect 2 4 1 10;
#X connect 2 5 1 11;
#X connect 3 0 1 12;
#X connect 3 1 1 13;
#X connect 3 2 1 14;
#X connect 3 3 1 15;
#X connect 3 4 1 16;
#X connect 3 5 1 17;
#X connect 4 0 1 18;
#X connect 4 1 1 19;
#X connect 4 2 1 20;
#X connect 4 3 1 21;
#X connect 4 4 1 22;
#X connect 4 5 1 23;
#X connect 5 0 6 0;
#X connect 5 1 2 0;
#X connect 5 2 3 0;
#X connect 5 3 4 0;
#X connect 6 0 1 0;
#X connect 6 1 1 1;
#X connect 6 2 1 2;
#X connect 6 3 1 3;
#X connect 6 4 1 4;
#X connect 6 5 1 5;
#X connect 10 0 6 1;
#X connect 11 0 2 1;
#X connect 12 0 3 1;
#X connect 13 0 4 1;
#X coords 0 -1 1 1 160 70 2 100 100;
#X restore 506 258 pd dmxled;
#X obj 77 22 load_sounds;
#X obj 77 4 bng 15 250 50 0 empty empty empty 17 7 0 10 -262144 -1
-1;
#X obj 77 41 s \$0-id;
#X obj 21 483 finalout;
#X obj 506 390 metro 10;
#X msg 506 356 1;
#X obj 506 373 tgl 15 0 empty empty empty 17 7 0 10 -262144 -1 -1 1
1;
#X obj 506 337 loadbang;
#X obj 512 410 r \$0-KL1_1;
#X obj 569 410 r \$0-KL1_2;
#X obj 626 410 r \$0-KL1_3;
#X obj 683 410 r \$0-KL1_4;
#X obj 542 430 r \$0-KR1_1;
#X obj 599 430 r \$0-KR1_2;
#X obj 656 430 r \$0-KR1_3;
#X obj 713 430 r \$0-KR1_4;
#X obj 21 64 osc-rcv 12000 kazenoutayomi, f 36;
#X floatatom 181 89 5 0 0 0 - - -;
#X floatatom 221 89 5 0 0 0 - - -;
#X floatatom 261 89 5 0 0 0 - - -;
#X floatatom 301 89 5 0 0 0 - - -;
#X obj 21 338 L1_sounds, f 17;
#X obj 237 338 R1_sounds, f 18;
#X obj 103 320 r \$0-id;
#X obj 21 298 r \$0-L1_1;
#X obj 74 298 r \$0-L1_2;
#X obj 127 298 r \$0-L1_3;
#X obj 179 298 r \$0-L1_4;
#X obj 237 298 r \$0-R1_1;
#X obj 289 298 r \$0-R1_2;
#X obj 341 298 r \$0-R1_3;
#X obj 393 298 r \$0-R1_4;
#X obj 323 320 r \$0-id;
#X obj 31 398 L2_sounds, f 17;
#X obj 113 380 r \$0-id;
#X obj 247 398 R2_sounds, f 18;
#X obj 31 358 r \$0-L2_1;
#X obj 84 358 r \$0-L2_2;
#X obj 137 358 r \$0-L2_3;
#X obj 189 358 r \$0-L2_4;
#X obj 247 358 r \$0-R2_1;
#X obj 299 358 r \$0-R2_2;
#X obj 351 358 r \$0-R2_3;
#X obj 403 358 r \$0-R2_4;
#X obj 333 380 r \$0-id;
#X obj 184 132 hsl 128 15 0 100 0 0 empty empty empty -2 -8 0 10 -203904
-1 -1 176 0;
#X obj 506 511 pack 0 0 0 0 0 0 0 0 0 0 0 0 0 0 0 0;
#X obj 532 460 r \$0-KL2_1;
#X obj 589 460 r \$0-KL2_2;
#X obj 646 460 r \$0-KL2_3;
#X obj 703 460 r \$0-KL2_4;
#X obj 733 480 r \$0-KR2_4;
#X obj 676 480 r \$0-KR2_3;
#X obj 619 480 r \$0-KR2_2;
#X obj 562 480 r \$0-KR2_1;
#N canvas 772 23 532 300 kaze_pattern_1 0;
#X obj 74 230 s \$0-L1_2;
#X obj 21 230 s \$0-L1_1;
#X obj 127 230 s \$0-R1_1;
#X obj 179 230 s \$0-R1_2;
#X obj 270 230 s \$0-KL1_1;
#X obj 330 230 s \$0-KL1_2;
#X obj 390 230 s \$0-KR1_3;
#X obj 450 230 s \$0-KR1_4;
#X obj 21 200 kaze 500, f 26;
#X obj 20 180 inlet;
#X connect 8 0 1 0;
#X connect 8 1 0 0;
#X connect 8 2 2 0;
#X connect 8 3 3 0;
#X connect 8 4 4 0;
#X connect 8 5 5 0;
#X connect 8 6 6 0;
#X connect 8 7 7 0;
#X connect 9 0 8 0;
#X restore 21 154 pd kaze_pattern_1;
#X obj 34 192 hsl 128 15 0 100 0 0 empty empty empty -2 -8 0 10 -203904
-1 -1 0 0;
#X obj 194 192 hsl 128 15 0 100 0 0 empty empty empty -2 -8 0 10 -203904
-1 -1 0 0;
#N canvas 0 23 582 276 saezuri_pattern_1 0;
#X obj 34 168 s \$0-L2_1;
#X obj 87 168 s \$0-L2_2;
#X obj 140 168 s \$0-R2_1;
#X obj 192 168 s \$0-R2_2;
#X obj 283 168 s \$0-KL2_1;
#X obj 343 168 s \$0-KL2_2;
#X obj 403 168 s \$0-KR2_3;
#X obj 463 168 s \$0-KR2_4;
#X obj 34 118 inlet;
#X obj 34 138 kaze 500, f 26;
#X connect 8 0 9 0;
#X connect 9 0 0 0;
#X connect 9 1 1 0;
#X connect 9 2 2 0;
#X connect 9 3 3 0;
#X connect 9 4 4 0;
#X connect 9 5 5 0;
#X connect 9 6 6 0;
#X connect 9 7 7 0;
#X restore 181 154 pd saezuri_pattern_1;
#N canvas 458 34 582 276 saezuri_pattern_2 0;
#X obj 34 138 kaze 500, f 26;
#X obj 34 118 inlet;
#X obj 34 168 s \$0-L2_3;
#X obj 87 168 s \$0-L2_4;
#X obj 140 168 s \$0-R2_3;
#X obj 192 168 s \$0-R2_4;
#X obj 283 168 s \$0-KL2_3;
#X obj 343 168 s \$0-KL2_4;
#X obj 403 168 s \$0-KR2_1;
#X obj 463 168 s \$0-KR2_2;
#X connect 0 0 2 0;
#X connect 0 1 3 0;
#X connect 0 2 4 0;
#X connect 0 3 5 0;
#X connect 0 4 6 0;
#X connect 0 5 7 0;
#X connect 0 6 8 0;
#X connect 0 7 9 0;
#X connect 1 0 0 0;
#X restore 191 214 pd saezuri_pattern_2;
#N canvas 772 23 532 300 kaze_pattern_2 0;
#X obj 21 200 kaze 500, f 26;
#X obj 20 180 inlet;
#X obj 21 230 s \$0-L1_3;
#X obj 74 230 s \$0-L1_4;
#X obj 127 230 s \$0-R1_3;
#X obj 179 230 s \$0-R1_4;
#X obj 270 230 s \$0-KL1_3;
#X obj 330 230 s \$0-KL1_4;
#X obj 390 230 s \$0-KR1_1;
#X obj 450 230 s \$0-KR1_2;
#X connect 0 0 2 0;
#X connect 0 1 3 0;
#X connect 0 2 4 0;
#X connect 0 3 5 0;
#X connect 0 4 6 0;
#X connect 0 5 7 0;
#X connect 0 6 8 0;
#X connect 0 7 9 0;
#X connect 1 0 0 0;
#X restore 31 214 pd kaze_pattern_2;
#X obj 506 530 osc-send 192.168.11.102 12001 kazenoutayomi;
#X connect 0 0 1 0;
#X connect 6 0 10 0;
#X connect 7 0 58 0;
#X connect 8 0 16 0;
#X connect 9 0 16 1;
#X connect 11 0 68 0;
#X connect 13 0 15 0;
#X connect 14 0 13 0;
#X connect 17 0 59 0;
#X connect 18 0 19 0;
#X connect 19 0 17 0;
#X connect 20 0 18 0;
#X connect 21 0 59 0;
#X connect 22 0 59 1;
#X connect 23 0 59 2;
#X connect 24 0 59 3;
#X connect 25 0 59 4;
#X connect 26 0 59 5;
#X connect 27 0 59 6;
#X connect 28 0 59 7;
#X connect 29 0 2 0;
#X connect 29 1 3 0;
#X connect 29 2 4 0;
#X connect 29 3 5 0;
#X connect 29 4 30 0;
#X connect 29 5 31 0;
#X connect 29 6 32 0;
#X connect 29 7 33 0;
#X connect 34 0 8 0;
#X connect 35 0 9 0;
#X connect 36 0 34 4;
#X connect 37 0 34 0;
#X connect 38 0 34 1;
#X connect 39 0 34 2;
#X connect 40 0 34 3;
#X connect 41 0 35 0;
#X connect 42 0 35 1;
#X connect 43 0 35 2;
#X connect 44 0 35 3;
#X connect 45 0 35 4;
#X connect 46 0 8 0;
#X connect 47 0 46 4;
#X connect 48 0 9 0;
#X connect 49 0 46 0;
#X connect 50 0 46 1;
#X connect 51 0 46 2;
#X connect 52 0 46 3;
#X connect 53 0 48 0;
#X connect 54 0 48 1;
#X connect 55 0 48 2;
#X connect 56 0 48 3;
#X connect 57 0 48 4;
#X connect 58 0 71 0;
#X connect 59 0 74 0;
#X connect 60 0 59 8;
#X connect 61 0 59 9;
#X connect 62 0 59 10;
#X connect 63 0 59 11;
#X connect 64 0 59 15;
#X connect 65 0 59 14;
#X connect 66 0 59 13;
#X connect 67 0 59 12;
#X connect 69 0 73 0;
#X connect 70 0 72 0;
