#N canvas 202 23 1213 549 10;
#N canvas 529 50 450 300 delay_effect 0;
#X obj 105 120 vsl 15 32 0 1 0 1 empty empty delay 0 -9 0 10 -262144
-1 -1 1400 1;
#X obj 158 68 inlet;
#X obj 248 176 *~;
#X obj 59 68 loadbang;
#X obj 115 68 inlet~;
#X obj 189 226 outlet~;
#X obj 249 205 delwrite~ \$0-delayA 1000;
#X obj 248 124 delread~ \$0-delayA \$1;
#X msg 286 94 500;
#X obj 234 68 inlet;
#X obj 286 68 loadbang;
#X connect 0 0 2 1;
#X connect 1 0 0 0;
#X connect 2 0 5 0;
#X connect 2 0 6 0;
#X connect 3 0 0 0;
#X connect 4 0 5 0;
#X connect 4 0 6 0;
#X connect 7 0 2 0;
#X connect 8 0 7 0;
#X connect 9 0 7 0;
#X connect 10 0 8 0;
#X coords 0 -1 1 1 85 60 2 100 100;
#X restore 26 318 pd delay_effect;
#N canvas 427 295 713 390 finalout 0;
#X obj 425 106 metro 20;
#X obj 425 36 tgl 15 0 empty empty empty 17 7 0 10 -262144 -1 -1 1
1;
#X obj 425 10 loadbang;
#X obj 425 130 tabwrite~ \$0-out;
#X msg 433 61 \; pd dsp \$1;
#X text 498 67 dsp on;
#X obj 261 354 dac~;
#X obj 109 136 cnv 15 60 40 empty empty empty 20 12 0 14 -262144 -66577
0;
#N canvas 0 50 450 278 (subpatch) 0;
#X array \$0-out 100 float 5;
#A 0 0 0 0 0 0 0 0 0 0 0 0 0 0 0 0 0 0 0 0 0 0 0 0 0 0 0 0 0 0 0 0
0 0 0 0 0 0 0 0 0 0 0 0 0 0 0 0 0 0 0 0 0 0 0 0 0 0 0 0 0 0 0 0 0 0
0 0 0 0 0 0 0 0 0 0 0 0 0 0 0 0 0 0 0 0 0 0 0 0 0 0 0 0 0 0 0 0 0 0
0;
#X coords 0 -1 99 1 60 40 1;
#X restore 110 136 graph;
#X obj 40 9 inlet~;
#X obj 82 9 inlet~;
#X text 103 102 LEFT;
#X text 146 102 RIGHT;
#X obj 194 141 vsl 15 32 0 1 0 1 empty empty empty 0 -9 0 10 -262144
-1 -1 2300 1;
#X text 193 102 VOL;
#X obj 40 31 *~;
#X obj 273 253 freeverb~;
#X obj 274 278 lop~ 16000;
#X obj 275 303 hip~ 5;
#X msg 287 223 wet 0.8 \, roomsize 0.7 \, dry 1;
#X obj 487 106 r~ finalWave;
#X obj 297 354 s~ finalWave;
#X connect 0 0 3 0;
#X connect 1 0 0 0;
#X connect 1 0 4 0;
#X connect 2 0 1 0;
#X connect 2 0 19 0;
#X connect 9 0 15 0;
#X connect 10 0 15 0;
#X connect 13 0 15 1;
#X connect 15 0 16 0;
#X connect 16 0 17 0;
#X connect 17 0 18 0;
#X connect 18 0 6 0;
#X connect 18 0 6 1;
#X connect 18 0 21 0;
#X connect 19 0 16 0;
#X connect 20 0 3 0;
#X coords 0 -1 1 1 120 80 2 100 100;
#X restore 26 388 pd finalout;
#X obj 26 287 sound_set1;
#X floatatom 26 65 5 0 0 0 - - -;
#X obj 26 44 osc-rcv 3000 pd;
#N canvas 672 250 568 528 parameter 0;
#X obj 199 110 vsl 30 128 20 1 0 1 empty empty empty 0 -9 0 10 -204786
-1 -1 600 1;
#X obj 112 110 vsl 30 128 0 10000 0 1 empty empty empty 0 -9 0 10 -261234
-1 -1 4700 1;
#X obj 240 110 vsl 30 128 10 4000 0 1 empty empty empty 0 -9 0 10 -204800
-1 -1 3200 1;
#X floatatom 112 284 6 0 0 2 - - -;
#X floatatom 158 284 6 0 0 2 - - -;
#X floatatom 199 284 6 0 0 2 - - -;
#X floatatom 240 284 7 0 0 2 - - -;
#X obj 158 110 vsl 30 128 0 10000 0 1 empty empty empty 0 -9 0 10 -262130
-1 -1 0 1;
#X floatatom 197 394 6 0 0 2 - - -;
#X floatatom 197 346 5 0 0 0 - - -;
#X obj 197 370 /;
#X obj 197 318 bng 15 250 50 0 empty empty empty 17 7 0 10 -262144
-1 -1;
#X obj 58 415 s para1;
#X obj 158 415 s para2;
#X obj 258 415 s para3;
#X obj 357 415 s para4;
#X connect 0 0 5 0;
#X connect 1 0 3 0;
#X connect 1 0 12 0;
#X connect 2 0 6 0;
#X connect 2 0 15 0;
#X connect 5 0 10 1;
#X connect 5 0 11 0;
#X connect 5 0 14 0;
#X connect 6 0 9 0;
#X connect 7 0 4 0;
#X connect 7 0 13 0;
#X connect 9 0 10 0;
#X connect 10 0 8 0;
#X connect 11 0 9 0;
#X coords 0 -1 1 1 180 150 2 100 100;
#X restore 637 356 pd parameter;
#X obj 106 287 sound_set2;
#X obj 186 287 sound_set3;
#X obj 266 287 sound_set4;
#X obj 346 287 sound_set5;
#X obj 426 287 sound_set6;
#X obj 506 287 sound_set7;
#X obj 586 287 sound_set8;
#X obj 666 287 sound_set9;
#X obj 746 287 sound_set10;
#N canvas 2 103 450 250 (subpatch) 0;
#X array chord 24 float 3;
#A 0 0 2 4 7 9 12 14 16 19 21 24 26 28 31 33 36 38 40 43 45 48 50 52
57;
#X coords 0 127 24 0 100 50 1 0 0;
#X restore 827 456 graph;
#N canvas 2 103 450 250 (subpatch) 0;
#X array c1 5 float 3;
#A 0 2 4 7 9 11;
#X coords 0 12 5 0 50 50 1 0 0;
#X restore 927 456 graph;
#X obj 835 135 bng 15 250 50 0 empty empty empty 17 7 0 10 -262144
-1 -1;
#X obj 835 160 chord_set c1;
#N canvas 2 103 450 250 (subpatch) 0;
#X array c2 5 float 3;
#A 0 0 2 4 7 9;
#X coords 0 12 5 0 50 50 1 0 0;
#X restore 977 456 graph;
#X obj 925 135 bng 15 250 50 0 empty empty empty 17 7 0 10 -262144
-1 -1;
#N canvas 2 103 450 250 (subpatch) 0;
#X array c3 5 float 3;
#A 0 0 4 5 7 11;
#X coords 0 12 5 0 50 50 1 0 0;
#X restore 1027 456 graph;
#X obj 1015 135 bng 15 250 50 0 empty empty empty 17 7 0 10 -262144
-1 -1;
#X obj 138 106 tabread chord;
#X floatatom 138 128 5 0 0 0 - - -;
#X obj 26 84 t b f;
#X obj 26 106 counter 0 0 9;
#X floatatom 26 128 5 0 0 0 - - -;
#X obj 26 169 route 0 1 2 3 4 5 6 7 8 9;
#X obj 26 147 pack 0 0;
#X text 25 26 NODE-RED OSC;
#X obj 925 160 chord_set c2;
#X obj 1015 160 chord_set c3;
#N canvas 2 103 450 250 (subpatch) 0;
#X array c4 5 float 3;
#A 0 1 3 6 8 10;
#X coords 0 12 5 0 50 50 1 0 0;
#X restore 1077 456 graph;
#X obj 1105 135 bng 15 250 50 0 empty empty empty 17 7 0 10 -262144
-1 -1;
#X obj 1105 160 chord_set c4;
#X obj 26 229 + 48;
#X obj 106 229 + 48;
#X obj 186 229 + 48;
#X obj 266 229 + 48;
#X obj 346 229 + 48;
#X obj 426 229 + 48;
#X obj 506 229 + 48;
#X obj 586 229 + 48;
#X obj 666 229 + 48;
#X obj 746 229 + 48;
#X obj 835 44 osc-rcv 3001 pd;
#X floatatom 835 66 5 0 0 0 - - -;
#X obj 835 85 sel 0 1 2 3;
#X obj 888 250 s oct;
#X obj 51 209 r oct;
#X obj 131 209 r oct;
#X obj 211 209 r oct;
#X obj 291 209 r oct;
#X obj 371 209 r oct;
#X obj 451 209 r oct;
#X obj 531 209 r oct;
#X obj 611 209 r oct;
#X obj 691 209 r oct;
#X obj 771 209 r oct;
#X msg 958 207 48;
#X msg 988 207 60;
#X msg 1018 207 72;
#X msg 928 207 36;
#X obj 179 21 tgl 15 0 empty empty empty 17 7 0 10 -262144 -1 -1 0
1;
#X msg 868 207 12;
#X msg 838 207 0;
#X msg 898 207 24;
#X obj 179 66 random 24;
#X obj 26 266 +;
#X obj 51 249 r mod;
#X obj 106 266 +;
#X obj 131 249 r mod;
#X obj 186 266 +;
#X obj 211 249 r mod;
#X obj 266 266 +;
#X obj 291 249 r mod;
#X obj 346 266 +;
#X obj 371 249 r mod;
#X obj 426 266 +;
#X obj 451 249 r mod;
#X obj 506 266 +;
#X obj 531 249 r mod;
#X obj 586 266 +;
#X obj 611 249 r mod;
#X obj 666 266 +;
#X obj 691 249 r mod;
#X obj 746 266 +;
#X obj 771 249 r mod;
#X msg 838 277 0;
#X obj 888 320 s mod;
#X msg 868 277 1;
#X msg 898 277 2;
#X msg 928 277 3;
#X msg 958 277 4;
#X msg 988 277 5;
#X msg 1018 277 6;
#X msg 500 54 100 10 0 0 0.01;
#X msg 396 53 100 10 0 1 0.01;
#X msg 605 54 0 100 0 0 0.01;
#X msg 615 74 0 0 100 0 0.01;
#X obj 180 44 metro 250;
#X obj 399 117 osc-send 192.168.11.120 9999 /minamo;
#X connect 0 0 1 0;
#X connect 0 0 1 1;
#X connect 2 0 0 0;
#X connect 3 0 25 0;
#X connect 4 0 3 0;
#X connect 6 0 0 0;
#X connect 7 0 0 0;
#X connect 8 0 0 0;
#X connect 9 0 0 0;
#X connect 10 0 0 0;
#X connect 11 0 0 0;
#X connect 13 0 0 0;
#X connect 14 0 0 0;
#X connect 17 0 18 0;
#X connect 20 0 31 0;
#X connect 22 0 32 0;
#X connect 23 0 24 0;
#X connect 24 0 29 1;
#X connect 25 0 26 0;
#X connect 25 1 23 0;
#X connect 26 0 27 0;
#X connect 27 0 29 0;
#X connect 28 0 36 0;
#X connect 28 1 37 0;
#X connect 28 2 38 0;
#X connect 28 3 39 0;
#X connect 28 4 40 0;
#X connect 28 5 41 0;
#X connect 28 6 42 0;
#X connect 28 7 43 0;
#X connect 28 8 44 0;
#X connect 28 9 45 0;
#X connect 29 0 28 0;
#X connect 34 0 35 0;
#X connect 36 0 69 0;
#X connect 37 0 71 0;
#X connect 38 0 73 0;
#X connect 39 0 75 0;
#X connect 40 0 77 0;
#X connect 41 0 79 0;
#X connect 42 0 81 0;
#X connect 43 0 83 0;
#X connect 44 0 85 0;
#X connect 45 0 87 0;
#X connect 46 0 47 0;
#X connect 47 0 48 0;
#X connect 48 0 17 0;
#X connect 48 1 20 0;
#X connect 48 2 22 0;
#X connect 48 3 34 0;
#X connect 50 0 36 1;
#X connect 51 0 37 1;
#X connect 52 0 38 1;
#X connect 53 0 39 1;
#X connect 54 0 40 1;
#X connect 55 0 41 1;
#X connect 56 0 42 1;
#X connect 57 0 43 1;
#X connect 58 0 44 1;
#X connect 59 0 45 1;
#X connect 60 0 49 0;
#X connect 61 0 49 0;
#X connect 62 0 49 0;
#X connect 63 0 49 0;
#X connect 64 0 101 0;
#X connect 65 0 49 0;
#X connect 66 0 49 0;
#X connect 67 0 49 0;
#X connect 68 0 3 0;
#X connect 69 0 2 0;
#X connect 70 0 69 1;
#X connect 71 0 6 0;
#X connect 72 0 71 1;
#X connect 73 0 7 0;
#X connect 74 0 73 1;
#X connect 75 0 8 0;
#X connect 76 0 75 1;
#X connect 77 0 9 0;
#X connect 78 0 77 1;
#X connect 79 0 10 0;
#X connect 80 0 79 1;
#X connect 81 0 11 0;
#X connect 82 0 81 1;
#X connect 83 0 12 0;
#X connect 84 0 83 1;
#X connect 85 0 13 0;
#X connect 86 0 85 1;
#X connect 87 0 14 0;
#X connect 88 0 87 1;
#X connect 89 0 90 0;
#X connect 91 0 90 0;
#X connect 92 0 90 0;
#X connect 93 0 90 0;
#X connect 94 0 90 0;
#X connect 95 0 90 0;
#X connect 96 0 90 0;
#X connect 97 0 102 0;
#X connect 98 0 102 0;
#X connect 99 0 102 0;
#X connect 100 0 102 0;
#X connect 101 0 68 0;
