#N canvas 386 220 569 333 10;
#X obj 24 50 oscparse;
#X obj 24 76 route list;
#X obj 24 23 netreceive -u -b 10001;
#X obj 109 64 unpack 0 0 0 0 0 0 0;
#X floatatom 109 119 5 0 0 0 - - -;
#X floatatom 149 119 5 0 0 0 - - -;
#X floatatom 189 119 5 0 0 0 - - -;
#X floatatom 229 119 5 0 0 0 - - -;
#X floatatom 289 119 5 0 0 0 - - -;
#X floatatom 329 119 5 0 0 0 - - -;
#X floatatom 369 119 5 0 0 0 - - -;
#X obj 24 103 route RTC;
#X obj 109 151 outlet;
#X obj 159 151 outlet;
#X obj 209 151 outlet;
#X obj 259 151 outlet;
#X obj 309 151 outlet;
#X obj 359 151 outlet;
#X obj 409 151 outlet;
#X connect 0 0 1 0;
#X connect 1 0 11 0;
#X connect 2 0 0 0;
#X connect 3 0 4 0;
#X connect 3 1 5 0;
#X connect 3 2 6 0;
#X connect 3 3 7 0;
#X connect 3 4 8 0;
#X connect 3 5 9 0;
#X connect 3 6 10 0;
#X connect 4 0 12 0;
#X connect 5 0 13 0;
#X connect 6 0 14 0;
#X connect 7 0 15 0;
#X connect 8 0 16 0;
#X connect 9 0 17 0;
#X connect 10 0 18 0;
#X connect 11 0 3 0;
#X coords 0 -1 1 1 320 40 1 100 100;
