#N canvas 8 118 1262 300 8;
#X obj 29 33 unpack f f f f f f;
#X floatatom 29 53 5 0 0 0 - - -;
#X floatatom 59 53 5 0 0 0 - - -;
#X floatatom 89 53 5 0 0 0 - - -;
#X floatatom 119 53 5 0 0 0 - - -;
#X floatatom 149 53 5 0 0 0 - - -;
#X floatatom 179 53 5 0 0 0 - - -;
#X obj 328 214 line;
#X floatatom 328 251 5 0 0 0 - - -;
#X obj 378 214 line;
#X floatatom 378 251 5 0 0 0 - - -;
#X obj 428 214 line;
#X floatatom 428 251 5 0 0 0 - - -;
#X obj 478 214 line;
#X floatatom 478 251 5 0 0 0 - - -;
#X obj 528 214 line;
#X floatatom 528 251 5 0 0 0 - - -;
#X obj 578 214 line;
#X floatatom 578 251 5 0 0 0 - - -;
#X obj 328 234 int;
#X obj 378 234 int;
#X obj 428 234 int;
#X obj 478 234 int;
#X obj 528 234 int;
#X obj 578 234 int;
#X obj 11 12 inlet;
#X obj 328 269 outlet;
#X obj 378 269 outlet;
#X obj 428 269 outlet;
#X obj 478 269 outlet;
#X obj 528 269 outlet;
#X obj 578 269 outlet;
#X msg 18 176 34 1000;
#X msg 68 176 88 1000;
#X msg 118 176 40 1000;
#X msg 168 176 0 1000;
#X msg 218 176 0 1000;
#X msg 268 176 0 1000;
#X obj 51 142 list trim;
#X obj 51 102 list prepend set;
#X obj 51 122 list append \$1;
#X obj 29 81 t b f;
#X obj 141 142 list trim;
#X obj 141 102 list prepend set;
#X obj 141 122 list append \$1;
#X obj 119 81 t b f;
#X obj 231 142 list trim;
#X obj 231 102 list prepend set;
#X obj 231 122 list append \$1;
#X obj 209 81 t b f;
#X obj 321 142 list trim;
#X obj 321 102 list prepend set;
#X obj 321 122 list append \$1;
#X obj 299 81 t b f;
#X obj 411 142 list trim;
#X obj 411 102 list prepend set;
#X obj 411 122 list append \$1;
#X obj 389 81 t b f;
#X obj 501 142 list trim;
#X obj 501 102 list prepend set;
#X obj 501 122 list append \$1;
#X obj 479 81 t b f;
#X obj 619 33 unpack f f f f f f;
#X floatatom 619 53 5 0 0 0 - - -;
#X floatatom 649 53 5 0 0 0 - - -;
#X floatatom 679 53 5 0 0 0 - - -;
#X floatatom 709 53 5 0 0 0 - - -;
#X floatatom 739 53 5 0 0 0 - - -;
#X floatatom 769 53 5 0 0 0 - - -;
#X obj 601 12 inlet;
#X msg 608 176 0 1000;
#X msg 658 176 0 1000;
#X msg 708 176 0 1000;
#X msg 758 176 0 1000;
#X msg 808 176 200 1000;
#X msg 858 176 0 1000;
#X obj 641 142 list trim;
#X obj 641 102 list prepend set;
#X obj 641 122 list append \$1;
#X obj 619 81 t b f;
#X obj 731 142 list trim;
#X obj 731 102 list prepend set;
#X obj 731 122 list append \$1;
#X obj 709 81 t b f;
#X obj 821 142 list trim;
#X obj 821 102 list prepend set;
#X obj 821 122 list append \$1;
#X obj 799 81 t b f;
#X obj 911 142 list trim;
#X obj 911 102 list prepend set;
#X obj 911 122 list append \$1;
#X obj 889 81 t b f;
#X obj 1001 142 list trim;
#X obj 1001 102 list prepend set;
#X obj 1001 122 list append \$1;
#X obj 979 81 t b f;
#X obj 1091 142 list trim;
#X obj 1091 102 list prepend set;
#X obj 1091 122 list append \$1;
#X obj 1069 81 t b f;
#X connect 0 0 1 0;
#X connect 0 1 2 0;
#X connect 0 2 3 0;
#X connect 0 3 4 0;
#X connect 0 4 5 0;
#X connect 0 5 6 0;
#X connect 1 0 41 0;
#X connect 2 0 45 0;
#X connect 3 0 49 0;
#X connect 4 0 53 0;
#X connect 5 0 57 0;
#X connect 6 0 61 0;
#X connect 7 0 19 0;
#X connect 8 0 26 0;
#X connect 9 0 20 0;
#X connect 10 0 27 0;
#X connect 11 0 21 0;
#X connect 12 0 28 0;
#X connect 13 0 22 0;
#X connect 14 0 29 0;
#X connect 15 0 23 0;
#X connect 16 0 30 0;
#X connect 17 0 24 0;
#X connect 18 0 31 0;
#X connect 19 0 8 0;
#X connect 20 0 10 0;
#X connect 21 0 12 0;
#X connect 22 0 14 0;
#X connect 23 0 16 0;
#X connect 24 0 18 0;
#X connect 25 0 0 0;
#X connect 32 0 7 0;
#X connect 33 0 9 0;
#X connect 34 0 11 0;
#X connect 35 0 13 0;
#X connect 36 0 15 0;
#X connect 37 0 17 0;
#X connect 38 0 32 0;
#X connect 39 0 40 0;
#X connect 40 0 38 0;
#X connect 41 0 32 0;
#X connect 41 1 39 0;
#X connect 42 0 33 0;
#X connect 43 0 44 0;
#X connect 44 0 42 0;
#X connect 45 0 33 0;
#X connect 45 1 43 0;
#X connect 46 0 34 0;
#X connect 47 0 48 0;
#X connect 48 0 46 0;
#X connect 49 0 34 0;
#X connect 49 1 47 0;
#X connect 50 0 35 0;
#X connect 51 0 52 0;
#X connect 52 0 50 0;
#X connect 53 0 35 0;
#X connect 53 1 51 0;
#X connect 54 0 36 0;
#X connect 55 0 56 0;
#X connect 56 0 54 0;
#X connect 57 0 36 0;
#X connect 57 1 55 0;
#X connect 58 0 37 0;
#X connect 59 0 60 0;
#X connect 60 0 58 0;
#X connect 61 0 37 0;
#X connect 61 1 59 0;
#X connect 62 0 63 0;
#X connect 62 1 64 0;
#X connect 62 2 65 0;
#X connect 62 3 66 0;
#X connect 62 4 67 0;
#X connect 62 5 68 0;
#X connect 63 0 79 0;
#X connect 64 0 83 0;
#X connect 65 0 87 0;
#X connect 66 0 91 0;
#X connect 67 0 95 0;
#X connect 68 0 99 0;
#X connect 69 0 62 0;
#X connect 70 0 7 0;
#X connect 71 0 9 0;
#X connect 72 0 11 0;
#X connect 73 0 13 0;
#X connect 74 0 15 0;
#X connect 75 0 17 0;
#X connect 76 0 70 0;
#X connect 77 0 78 0;
#X connect 78 0 76 0;
#X connect 79 0 70 0;
#X connect 79 1 77 0;
#X connect 80 0 71 0;
#X connect 81 0 82 0;
#X connect 82 0 80 0;
#X connect 83 0 71 0;
#X connect 83 1 81 0;
#X connect 84 0 72 0;
#X connect 85 0 86 0;
#X connect 86 0 84 0;
#X connect 87 0 72 0;
#X connect 87 1 85 0;
#X connect 88 0 73 0;
#X connect 89 0 90 0;
#X connect 90 0 88 0;
#X connect 91 0 73 0;
#X connect 91 1 89 0;
#X connect 92 0 74 0;
#X connect 93 0 94 0;
#X connect 94 0 92 0;
#X connect 95 0 74 0;
#X connect 95 1 93 0;
#X connect 96 0 75 0;
#X connect 97 0 98 0;
#X connect 98 0 96 0;
#X connect 99 0 75 0;
#X connect 99 1 97 0;
