#N canvas 1191 23 857 587 8;
#X obj 21 5 loadbang;
#X msg 21 31 \; pd dsp 1;
#N canvas 931 231 877 300 system2 0;
#X obj 102 49 osc-rcv 55560 system2;
#X obj 101 101 cnv 15 318 41 empty empty System_2 2 6 0 8 -187896 -13330
0;
#X obj 137 244 outlet;
#X obj 187 244 outlet;
#X obj 237 244 outlet;
#X obj 287 244 outlet;
#X obj 337 244 outlet;
#X obj 387 244 outlet;
#X obj 437 244 outlet;
#X obj 487 244 outlet;
#X text 369 101 osc 55560;
#X obj 102 149 sel 0;
#X obj 74 195 line;
#X msg 74 175 0 \, 1 2000;
#X obj 162 149 sel 0;
#X obj 134 195 line;
#X msg 134 175 0 \, 1 2000;
#X obj 222 149 sel 0;
#X obj 194 195 line;
#X msg 194 175 0 \, 1 2000;
#X obj 282 149 sel 0;
#X obj 254 195 line;
#X msg 254 175 0 \, 1 2000;
#X obj 342 149 sel 0;
#X obj 314 195 line;
#X msg 314 175 0 \, 1 2000;
#X obj 402 149 sel 0;
#X obj 374 195 line;
#X msg 374 175 0 \, 1 2000;
#X obj 462 149 sel 0;
#X obj 434 195 line;
#X msg 434 175 0 \, 1 2000;
#X obj 522 149 sel 0;
#X obj 494 195 line;
#X msg 494 175 0 \, 1 2000;
#X obj 102 116 cnv 15 110 25 empty empty KUJAKU 2 4 0 8 -204800 -13330
0;
#X floatatom 102 126 5 0 0 0 - - -;
#X floatatom 142 126 5 0 0 0 - - -;
#X floatatom 182 126 5 0 0 0 - - -;
#X obj 221 116 cnv 15 110 25 empty empty KOJUKEI_1_2_3 2 4 0 8 -204800
-13330 0;
#X floatatom 222 126 5 0 0 0 - - -;
#X floatatom 262 126 5 0 0 0 - - -;
#X floatatom 302 126 5 0 0 0 - - -;
#X obj 341 116 cnv 15 35 25 empty empty KAKKO 2 4 0 8 -204800 -13330
0;
#X floatatom 342 126 5 0 0 0 - - -;
#X floatatom 382 126 5 0 0 0 - - -;
#X connect 0 0 36 0;
#X connect 0 1 37 0;
#X connect 0 2 38 0;
#X connect 0 3 40 0;
#X connect 0 4 41 0;
#X connect 0 5 42 0;
#X connect 0 6 44 0;
#X connect 0 7 45 0;
#X connect 11 1 13 0;
#X connect 12 0 2 0;
#X connect 13 0 12 0;
#X connect 14 1 16 0;
#X connect 15 0 3 0;
#X connect 16 0 15 0;
#X connect 17 1 19 0;
#X connect 18 0 4 0;
#X connect 19 0 18 0;
#X connect 20 1 22 0;
#X connect 21 0 5 0;
#X connect 22 0 21 0;
#X connect 23 1 25 0;
#X connect 24 0 6 0;
#X connect 25 0 24 0;
#X connect 26 1 28 0;
#X connect 27 0 7 0;
#X connect 28 0 27 0;
#X connect 29 1 31 0;
#X connect 30 0 8 0;
#X connect 31 0 30 0;
#X connect 32 1 34 0;
#X connect 33 0 9 0;
#X connect 34 0 33 0;
#X connect 36 0 11 0;
#X connect 37 0 14 0;
#X connect 38 0 17 0;
#X connect 40 0 20 0;
#X connect 41 0 23 0;
#X connect 42 0 26 0;
#X connect 44 0 29 0;
#X coords 0 -1 1 1 320 45 2 100 100;
#X restore 506 116 pd system2;
#N canvas 1295 350 635 300 system2 0;
#X obj 101 101 cnv 15 318 41 empty empty System_1 2 6 0 8 -241457 -83269
0;
#X text 369 101 osc 55550;
#X obj 137 244 outlet;
#X obj 187 244 outlet;
#X obj 237 244 outlet;
#X obj 287 244 outlet;
#X obj 337 244 outlet;
#X obj 387 244 outlet;
#X obj 437 244 outlet;
#X obj 487 244 outlet;
#X obj 102 149 sel 0;
#X obj 74 195 line;
#X msg 74 175 0 \, 1 2000;
#X obj 162 149 sel 0;
#X obj 134 195 line;
#X msg 134 175 0 \, 1 2000;
#X obj 222 149 sel 0;
#X obj 194 195 line;
#X msg 194 175 0 \, 1 2000;
#X obj 282 149 sel 0;
#X obj 254 195 line;
#X msg 254 175 0 \, 1 2000;
#X obj 342 149 sel 0;
#X obj 314 195 line;
#X msg 314 175 0 \, 1 2000;
#X obj 402 149 sel 0;
#X obj 374 195 line;
#X msg 374 175 0 \, 1 2000;
#X obj 462 149 sel 0;
#X obj 434 195 line;
#X msg 434 175 0 \, 1 2000;
#X obj 522 149 sel 0;
#X obj 494 195 line;
#X msg 494 175 0 \, 1 2000;
#X obj 102 69 osc-rcv 55550 system1;
#X obj 102 116 cnv 15 73 25 empty empty KAWAU 2 4 0 8 -262130 -83269
0;
#X floatatom 102 124 5 0 0 0 - - -;
#X floatatom 142 124 5 0 0 0 - - -;
#X obj 181 116 cnv 15 35 25 empty empty HATO_1 2 4 0 8 -262130 -83269
0;
#X floatatom 262 124 5 0 0 0 - - -;
#X floatatom 302 124 5 0 0 0 - - -;
#X floatatom 342 124 5 0 0 0 - - -;
#X floatatom 382 124 5 0 0 0 - - -;
#X floatatom 182 124 5 0 0 0 - - -;
#X obj 221 116 cnv 15 35 25 empty empty HATO_2 2 4 0 8 -262130 -83269
0;
#X floatatom 222 124 5 0 0 0 - - -;
#X connect 10 1 12 0;
#X connect 11 0 2 0;
#X connect 12 0 11 0;
#X connect 13 1 15 0;
#X connect 14 0 3 0;
#X connect 15 0 14 0;
#X connect 16 1 18 0;
#X connect 17 0 4 0;
#X connect 18 0 17 0;
#X connect 19 1 21 0;
#X connect 20 0 5 0;
#X connect 21 0 20 0;
#X connect 22 1 24 0;
#X connect 23 0 6 0;
#X connect 24 0 23 0;
#X connect 25 1 27 0;
#X connect 26 0 7 0;
#X connect 27 0 26 0;
#X connect 28 1 30 0;
#X connect 29 0 8 0;
#X connect 30 0 29 0;
#X connect 31 1 33 0;
#X connect 32 0 9 0;
#X connect 33 0 32 0;
#X connect 34 0 36 0;
#X connect 34 1 37 0;
#X connect 34 2 43 0;
#X connect 34 3 45 0;
#X connect 34 4 39 0;
#X connect 34 5 40 0;
#X connect 34 6 41 0;
#X connect 34 7 42 0;
#X connect 36 0 10 0;
#X connect 37 0 13 0;
#X connect 39 0 22 0;
#X connect 40 0 25 0;
#X connect 41 0 28 0;
#X connect 42 0 31 0;
#X connect 43 0 16 0;
#X connect 45 0 19 0;
#X coords 0 -1 1 1 320 45 2 100 100;
#X restore 506 18 pd system2;
#X obj 21 417 delayA;
#X obj 232 417 delayA;
#X obj 77 22 load_sounds;
#X obj 77 4 bng 15 250 50 0 empty empty empty 17 7 0 10 -262144 -1
-1;
#X obj 77 41 s \$0-id;
#X obj 21 483 finalout;
#X obj 21 338 L1_sounds, f 17;
#X obj 237 338 R1_sounds, f 18;
#X obj 103 320 r \$0-id;
#X obj 21 298 r \$0-L1_1;
#X obj 74 298 r \$0-L1_2;
#X obj 127 298 r \$0-L1_3;
#X obj 179 298 r \$0-L1_4;
#X obj 237 298 r \$0-R1_1;
#X obj 289 298 r \$0-R1_2;
#X obj 341 298 r \$0-R1_3;
#X obj 393 298 r \$0-R1_4;
#X obj 323 320 r \$0-id;
#X obj 31 398 L2_sounds, f 17;
#X obj 113 380 r \$0-id;
#X obj 247 398 R2_sounds, f 18;
#X obj 31 358 r \$0-L2_1;
#X obj 84 358 r \$0-L2_2;
#X obj 137 358 r \$0-L2_3;
#X obj 189 358 r \$0-L2_4;
#X obj 247 358 r \$0-R2_1;
#X obj 299 358 r \$0-R2_2;
#X obj 351 358 r \$0-R2_3;
#X obj 403 358 r \$0-R2_4;
#X obj 333 380 r \$0-id;
#N canvas 0 23 526 300 osc-rcv-kazenoutayomi 0;
#X floatatom 21 149 5 0 0 0 - - -;
#X floatatom 61 149 5 0 0 0 - - -;
#X floatatom 101 149 5 0 0 0 - - -;
#X floatatom 141 149 5 0 0 0 - - -;
#X obj 81 170 s \$0-L1_2;
#X obj 21 170 s \$0-L1_1;
#X obj 21 64 osc-rcv 12001 kazenoutayomi, f 36;
#X floatatom 181 149 5 0 0 0 - - -;
#X floatatom 221 149 5 0 0 0 - - -;
#X floatatom 261 149 5 0 0 0 - - -;
#X floatatom 301 149 5 0 0 0 - - -;
#X obj 261 170 s \$0-R1_1;
#X obj 321 170 s \$0-R1_2;
#X obj 381 170 s \$0-R1_3;
#X obj 440 170 s \$0-R1_4;
#X floatatom 31 209 5 0 0 0 - - -;
#X floatatom 71 209 5 0 0 0 - - -;
#X floatatom 111 209 5 0 0 0 - - -;
#X floatatom 151 209 5 0 0 0 - - -;
#X floatatom 191 209 5 0 0 0 - - -;
#X floatatom 231 209 5 0 0 0 - - -;
#X floatatom 271 209 5 0 0 0 - - -;
#X floatatom 311 209 5 0 0 0 - - -;
#X obj 31 230 s \$0-L2_1;
#X obj 91 230 s \$0-L2_2;
#X obj 151 230 s \$0-L2_1;
#X obj 141 170 s \$0-L1_3;
#X obj 200 170 s \$0-L1_3;
#X obj 210 230 s \$0-L2_4;
#X obj 271 230 s \$0-R2_1;
#X obj 331 230 s \$0-R2_2;
#X obj 391 230 s \$0-R2_3;
#X obj 450 230 s \$0-R2_4;
#X connect 0 0 5 0;
#X connect 1 0 4 0;
#X connect 2 0 26 0;
#X connect 3 0 27 0;
#X connect 6 0 0 0;
#X connect 6 1 1 0;
#X connect 6 2 2 0;
#X connect 6 3 3 0;
#X connect 6 4 7 0;
#X connect 6 5 8 0;
#X connect 6 6 9 0;
#X connect 6 7 10 0;
#X connect 6 8 15 0;
#X connect 6 9 16 0;
#X connect 6 10 17 0;
#X connect 6 11 18 0;
#X connect 6 12 19 0;
#X connect 6 13 20 0;
#X connect 6 14 21 0;
#X connect 6 15 22 0;
#X connect 7 0 11 0;
#X connect 8 0 12 0;
#X connect 9 0 13 0;
#X connect 10 0 14 0;
#X connect 15 0 23 0;
#X connect 16 0 24 0;
#X connect 17 0 25 0;
#X connect 18 0 28 0;
#X connect 19 0 29 0;
#X connect 20 0 30 0;
#X connect 21 0 31 0;
#X connect 22 0 32 0;
#X restore 21 61 pd osc-rcv-kazenoutayomi;
#X connect 0 0 1 0;
#X connect 4 0 9 0;
#X connect 5 0 9 1;
#X connect 6 0 8 0;
#X connect 7 0 6 0;
#X connect 10 0 4 0;
#X connect 11 0 5 0;
#X connect 12 0 10 4;
#X connect 13 0 10 0;
#X connect 14 0 10 1;
#X connect 15 0 10 2;
#X connect 16 0 10 3;
#X connect 17 0 11 0;
#X connect 18 0 11 1;
#X connect 19 0 11 2;
#X connect 20 0 11 3;
#X connect 21 0 11 4;
#X connect 22 0 4 0;
#X connect 23 0 22 4;
#X connect 24 0 5 0;
#X connect 25 0 22 0;
#X connect 26 0 22 1;
#X connect 27 0 22 2;
#X connect 28 0 22 3;
#X connect 29 0 24 0;
#X connect 30 0 24 1;
#X connect 31 0 24 2;
#X connect 32 0 24 3;
#X connect 33 0 24 4;
