#N canvas 907 23 1088 587 8;
#N canvas 420 248 695 407 finalout 0;
#X obj 425 106 metro 20;
#X obj 425 36 tgl 15 0 empty empty empty 17 7 0 10 -262144 -1 -1 1
1;
#X obj 425 10 loadbang;
#X msg 433 61 \; pd dsp \$1;
#X text 498 67 dsp on;
#X obj 258 359 dac~;
#X obj 109 136 cnv 15 60 40 empty empty empty 20 12 0 14 -262144 -66577
0;
#N canvas 0 50 450 278 (subpatch) 0;
#X array \$0-out-L 100 float 5;
#A 0 1.24856e-16 1.43411e-16 1.61892e-16 1.79512e-16 1.97782e-16 2.14488e-16
2.32276e-16 2.50513e-16 2.67445e-16 2.86494e-16 3.0487e-16 3.21483e-16
3.39502e-16 3.57322e-16 3.75408e-16 3.92531e-16 4.0954e-16 4.2491e-16
4.42738e-16 4.59667e-16 4.73552e-16 4.85726e-16 4.98182e-16 5.09453e-16
5.18669e-16 5.29189e-16 5.3763e-16 5.44768e-16 5.51693e-16 5.56505e-16
5.59179e-16 5.61275e-16 5.61535e-16 5.62083e-16 5.61029e-16 5.57676e-16
5.54718e-16 5.49405e-16 5.42942e-16 5.35161e-16 5.27e-16 5.18006e-16
5.08464e-16 4.98063e-16 4.86954e-16 4.75073e-16 4.62102e-16 4.49423e-16
4.36334e-16 4.20439e-16 4.05428e-16 3.89875e-16 3.72826e-16 3.55562e-16
3.39869e-16 3.22788e-16 3.03909e-16 2.852e-16 2.66134e-16 2.45689e-16
2.24513e-16 2.03693e-16 1.82077e-16 1.59372e-16 1.37687e-16 1.13089e-16
8.94428e-17 6.51399e-17 4.18632e-17 1.98685e-17 -2.86957e-18 -2.79193e-17
-5.33729e-17 -7.78493e-17 -1.01714e-16 -1.24525e-16 -1.47785e-16 -1.70991e-16
-1.92931e-16 -2.14616e-16 -2.35987e-16 -2.56041e-16 -2.74755e-16 -2.92785e-16
-3.10755e-16 -3.2825e-16 -3.44884e-16 -3.60683e-16 -3.74902e-16 -3.87441e-16
-3.99867e-16 -4.11564e-16 -4.23262e-16 -4.3544e-16 -4.47309e-16 -4.55905e-16
-4.65595e-16 -4.74217e-16 -4.80931e-16 -4.87815e-16;
#X coords 0 -1 99 1 60 40 2 0 0;
#X restore 110 136 graph;
#X obj 40 9 inlet~;
#X obj 176 141 vsl 15 32 0 1 0 1 empty empty empty 0 -9 0 10 -204786
-1 -1 1800 1;
#X text 175 102 VOL;
#X obj 40 41 *~;
#X obj 141 278 lop~ 16000;
#X obj 141 305 hip~ 5;
#X msg 424 182 room 0.9 \, damp 1.8 \, dry 0.4 \, wet 0.8;
#X obj 424 155 loadbang;
#X obj 176 118 tgl 15 0 empty empty empty 17 7 0 10 -262144 -1 -1 1
1;
#X obj 142 334 *~;
#X obj 141 246 vfreeverb~;
#X obj 202 109 vsl 15 64 0 1 0 1 empty empty empty 0 -9 0 10 -204800
-1 -1 3600 1;
#X obj 39 203 expr~ $v1*(1-$f2);
#X obj 140 203 expr~ $v1*$f2;
#X msg 316 76 1;
#X obj 316 53 loadbang;
#X text 103 102 LEFT;
#X obj 425 130 tabwrite~ \$0-out-L;
#X obj 525 130 tabwrite~ \$0-out-R;
#X obj 475 106 r~ \$0-final-L;
#X obj 557 106 r~ \$0-final-R;
#X obj 142 357 s~ \$0-final-L;
#X obj 342 278 lop~ 16000;
#X obj 342 305 hip~ 5;
#X obj 343 334 *~;
#X obj 342 246 vfreeverb~;
#X obj 343 357 s~ \$0-final-R;
#N canvas 0 50 450 278 (subpatch) 0;
#X array \$0-out-R 100 float 5;
#A 0 0 0 0 0 0 0 0 0 0 0 0 0 0 0 0 0 0 0 0 0 0 0 0 0 0 0 0 0 0 0 0
0 0 0 0 0 0 0 0 0 0 0 0 0 0 0 0 0 0 0 0 0 0 0 0 0 0 0 0 0 0 0 0 0 0
0 0 0 0 0 0 0 0 0 0 0 0 0 0 0 0 0 0 0 0 0 0 0 0 0 0 0 0 0 0 0 0 0 0
0;
#X coords 0 -1 99 1 60 40 1 0 0;
#X restore 250 136 graph;
#X obj 316 141 vsl 15 32 0 1 0 1 empty empty empty 0 -9 0 10 -204786
-1 -1 1700 1;
#X text 315 102 VOL;
#X obj 316 118 tgl 15 0 empty empty empty 17 7 0 10 -262144 -1 -1 1
1;
#X obj 342 109 vsl 15 64 0 1 0 1 empty empty empty 0 -9 0 10 -204800
-1 -1 2400 1;
#X obj 241 203 expr~ $v1*(1-$f2);
#X obj 342 203 expr~ $v1*$f2;
#X obj 230 9 inlet~;
#X obj 230 41 *~;
#X text 243 102 RIGHT;
#X connect 0 0 25 0;
#X connect 0 0 26 0;
#X connect 1 0 0 0;
#X connect 1 0 3 0;
#X connect 2 0 1 0;
#X connect 8 0 11 0;
#X connect 9 0 11 1;
#X connect 11 0 20 0;
#X connect 11 0 21 0;
#X connect 12 0 13 0;
#X connect 13 0 17 0;
#X connect 14 0 18 2;
#X connect 14 0 33 2;
#X connect 15 0 14 0;
#X connect 16 0 17 1;
#X connect 17 0 29 0;
#X connect 17 0 5 0;
#X connect 18 0 12 0;
#X connect 19 0 20 1;
#X connect 19 0 21 1;
#X connect 20 0 12 0;
#X connect 21 0 18 0;
#X connect 22 0 16 0;
#X connect 22 0 38 0;
#X connect 23 0 22 0;
#X connect 27 0 25 0;
#X connect 28 0 26 0;
#X connect 30 0 31 0;
#X connect 31 0 32 0;
#X connect 32 0 34 0;
#X connect 32 0 5 1;
#X connect 33 0 30 0;
#X connect 36 0 43 1;
#X connect 38 0 32 1;
#X connect 39 0 41 0;
#X connect 39 0 40 0;
#X connect 40 0 30 0;
#X connect 41 0 33 0;
#X connect 42 0 43 0;
#X connect 43 0 40 0;
#X connect 43 0 41 0;
#X coords 0 -1 1 1 280 80 2 100 100;
#X restore 22 483 pd finalout;
#X obj 21 35 loadbang;
#X msg 21 53 \; pd dsp 1;
#N canvas 0 22 450 278 (subpatch) 0;
#X array sound1-2 3.58909e+06 float 2;
#X coords 0 1 3.58909e+06 -1 100 35 1 0 0;
#X restore 328 19 graph;
#N canvas 0 22 450 278 (subpatch) 0;
#X array sound1-1 2.54963e+06 float 2;
#X coords 0 1 2.54963e+06 -1 100 35 1 0 0;
#X restore 218 19 graph;
#N canvas 0 23 450 278 (subpatch) 0;
#X array sound1-4 7.38534e+06 float 2;
#X coords 0 1 7.38534e+06 -1 100 35 1 0 0;
#X restore 548 19 graph;
#N canvas 0 22 450 278 (subpatch) 0;
#X array sound1-3 9.3836e+06 float 2;
#X coords 0 1 9.3836e+06 -1 100 35 1 0 0;
#X restore 438 19 graph;
#N canvas 524 331 1210 439 load_sounds 0;
#X obj 23 68 soundfiler;
#X obj 23 18 loadbang;
#X floatatom 23 92 15 0 0 0 - - -;
#X obj 23 117 / 44100;
#X floatatom 23 144 5 0 0 0 - - -;
#X text 69 145 bpsを秒に換算;
#X obj 341 66 soundfiler;
#X obj 341 16 loadbang;
#X floatatom 341 90 15 0 0 0 - - -;
#X obj 341 115 / 44100;
#X floatatom 341 142 5 0 0 0 - - -;
#X text 387 143 bpsを秒に換算;
#X obj 23 268 soundfiler;
#X obj 23 218 loadbang;
#X floatatom 23 292 15 0 0 0 - - -;
#X obj 23 317 / 44100;
#X floatatom 23 344 5 0 0 0 - - -;
#X text 69 345 bpsを秒に換算;
#X obj 341 266 soundfiler;
#X obj 341 216 loadbang;
#X floatatom 341 290 15 0 0 0 - - -;
#X obj 341 315 / 44100;
#X floatatom 341 342 5 0 0 0 - - -;
#X text 387 343 bpsを秒に換算;
#X obj 643 68 soundfiler;
#X obj 643 18 loadbang;
#X floatatom 643 92 15 0 0 0 - - -;
#X obj 643 117 / 44100;
#X floatatom 643 144 5 0 0 0 - - -;
#X text 689 145 bpsを秒に換算;
#X obj 961 66 soundfiler;
#X obj 961 16 loadbang;
#X floatatom 961 90 15 0 0 0 - - -;
#X obj 961 115 / 44100;
#X floatatom 961 142 5 0 0 0 - - -;
#X text 1007 143 bpsを秒に換算;
#X obj 643 268 soundfiler;
#X obj 643 218 loadbang;
#X floatatom 643 292 15 0 0 0 - - -;
#X obj 643 317 / 44100;
#X floatatom 643 344 5 0 0 0 - - -;
#X text 689 345 bpsを秒に換算;
#X obj 961 266 soundfiler;
#X obj 961 216 loadbang;
#X floatatom 961 290 15 0 0 0 - - -;
#X obj 961 315 / 44100;
#X floatatom 961 342 5 0 0 0 - - -;
#X text 1007 343 bpsを秒に換算;
#X msg 23 44 read -resize sound/kaze/01.wav sound1-1;
#X msg 341 42 read -resize sound/kaze/02.wav sound1-2;
#X msg 341 242 read -resize sound/kaze/04.wav sound1-4;
#X msg 23 244 read -resize sound/kaze/03.wav sound1-3;
#X msg 643 44 read -resize sound/saezuri/01.wav sound2-1;
#X msg 643 244 read -resize sound/saezuri/03.wav sound2-3;
#X msg 961 42 read -resize sound/saezuri/02.wav sound2-2;
#X msg 961 242 read -resize sound/saezuri/04.wav sound2-4;
#X connect 0 0 2 0;
#X connect 1 0 48 0;
#X connect 2 0 3 0;
#X connect 3 0 4 0;
#X connect 6 0 8 0;
#X connect 7 0 49 0;
#X connect 8 0 9 0;
#X connect 9 0 10 0;
#X connect 12 0 14 0;
#X connect 13 0 51 0;
#X connect 14 0 15 0;
#X connect 15 0 16 0;
#X connect 18 0 20 0;
#X connect 19 0 50 0;
#X connect 20 0 21 0;
#X connect 21 0 22 0;
#X connect 24 0 26 0;
#X connect 25 0 52 0;
#X connect 26 0 27 0;
#X connect 27 0 28 0;
#X connect 30 0 32 0;
#X connect 31 0 54 0;
#X connect 32 0 33 0;
#X connect 33 0 34 0;
#X connect 36 0 38 0;
#X connect 37 0 53 0;
#X connect 38 0 39 0;
#X connect 39 0 40 0;
#X connect 42 0 44 0;
#X connect 43 0 55 0;
#X connect 44 0 45 0;
#X connect 45 0 46 0;
#X connect 48 0 0 0;
#X connect 49 0 6 0;
#X connect 50 0 18 0;
#X connect 51 0 12 0;
#X connect 52 0 24 0;
#X connect 53 0 36 0;
#X connect 54 0 30 0;
#X connect 55 0 42 0;
#X restore 21 16 pd load_sounds;
#X obj 21 114 osc-rcv 12000 calion, f 36;
#X floatatom 21 139 5 0 0 0 - - -;
#X floatatom 61 139 5 0 0 0 - - -;
#X floatatom 101 139 5 0 0 0 - - -;
#X floatatom 141 139 5 0 0 0 - - -;
#X obj 745 123 CALENDAR;
#X obj 935 171 pack 0 0 0;
#X obj 881 227 bng 15 250 50 0 empty empty empty 17 7 0 10 -262144
-1 -1;
#X obj 981 228 bng 15 250 50 0 empty empty empty 17 7 0 10 -262144
-1 -1;
#X obj 881 200 watch 12 0 0;
#X obj 981 200 watch 12 1 0;
#N canvas 20 111 877 300 system2 0;
#X obj 102 49 osc-rcv 55560 system2;
#X obj 101 101 cnv 15 318 41 empty empty empty 20 12 0 14 -187896 -66577
0;
#X floatatom 102 124 5 0 0 0 - - -;
#X floatatom 142 124 5 0 0 0 - - -;
#X floatatom 182 124 5 0 0 0 - - -;
#X floatatom 222 124 5 0 0 0 - - -;
#X floatatom 262 124 5 0 0 0 - - -;
#X floatatom 302 124 5 0 0 0 - - -;
#X floatatom 342 124 5 0 0 0 - - -;
#X floatatom 382 124 5 0 0 0 - - -;
#X text 104 102 System 2;
#X obj 137 244 outlet;
#X obj 187 244 outlet;
#X obj 237 244 outlet;
#X obj 287 244 outlet;
#X obj 337 244 outlet;
#X obj 387 244 outlet;
#X obj 437 244 outlet;
#X obj 487 244 outlet;
#X text 351 102 osc 55560;
#X obj 102 149 sel 0;
#X obj 74 195 line;
#X msg 74 175 0 \, 1 2000;
#X obj 162 149 sel 0;
#X obj 134 195 line;
#X msg 134 175 0 \, 1 2000;
#X obj 222 149 sel 0;
#X obj 194 195 line;
#X msg 194 175 0 \, 1 2000;
#X obj 282 149 sel 0;
#X obj 254 195 line;
#X msg 254 175 0 \, 1 2000;
#X obj 342 149 sel 0;
#X obj 314 195 line;
#X msg 314 175 0 \, 1 2000;
#X obj 402 149 sel 0;
#X obj 374 195 line;
#X msg 374 175 0 \, 1 2000;
#X obj 462 149 sel 0;
#X obj 434 195 line;
#X msg 434 175 0 \, 1 2000;
#X obj 522 149 sel 0;
#X obj 494 195 line;
#X msg 494 175 0 \, 1 2000;
#X connect 0 0 2 0;
#X connect 0 1 3 0;
#X connect 0 2 4 0;
#X connect 0 3 5 0;
#X connect 0 4 6 0;
#X connect 0 5 7 0;
#X connect 0 6 8 0;
#X connect 0 7 9 0;
#X connect 2 0 20 0;
#X connect 3 0 23 0;
#X connect 4 0 26 0;
#X connect 5 0 29 0;
#X connect 6 0 32 0;
#X connect 7 0 35 0;
#X connect 8 0 38 0;
#X connect 9 0 41 0;
#X connect 20 1 22 0;
#X connect 21 0 11 0;
#X connect 22 0 21 0;
#X connect 23 1 25 0;
#X connect 24 0 12 0;
#X connect 25 0 24 0;
#X connect 26 1 28 0;
#X connect 27 0 13 0;
#X connect 28 0 27 0;
#X connect 29 1 31 0;
#X connect 30 0 14 0;
#X connect 31 0 30 0;
#X connect 32 1 34 0;
#X connect 33 0 15 0;
#X connect 34 0 33 0;
#X connect 35 1 37 0;
#X connect 36 0 16 0;
#X connect 37 0 36 0;
#X connect 38 1 40 0;
#X connect 39 0 17 0;
#X connect 40 0 39 0;
#X connect 41 1 43 0;
#X connect 42 0 18 0;
#X connect 43 0 42 0;
#X coords 0 -1 1 1 320 45 2 100 100;
#X restore 745 66 pd system2;
#N canvas 326 192 635 300 system2 0;
#X obj 101 101 cnv 15 318 41 empty empty empty 20 12 0 14 -241457 -66577
0;
#X text 104 102 System 1;
#X text 351 102 osc 55550;
#X floatatom 102 124 5 0 0 0 - - -;
#X floatatom 142 124 5 0 0 0 - - -;
#X floatatom 182 124 5 0 0 0 - - -;
#X floatatom 222 124 5 0 0 0 - - -;
#X floatatom 262 124 5 0 0 0 - - -;
#X floatatom 302 124 5 0 0 0 - - -;
#X floatatom 342 124 5 0 0 0 - - -;
#X floatatom 382 124 5 0 0 0 - - -;
#X obj 137 244 outlet;
#X obj 187 244 outlet;
#X obj 237 244 outlet;
#X obj 287 244 outlet;
#X obj 337 244 outlet;
#X obj 387 244 outlet;
#X obj 437 244 outlet;
#X obj 487 244 outlet;
#X obj 102 149 sel 0;
#X obj 74 195 line;
#X msg 74 175 0 \, 1 2000;
#X obj 162 149 sel 0;
#X obj 134 195 line;
#X msg 134 175 0 \, 1 2000;
#X obj 222 149 sel 0;
#X obj 194 195 line;
#X msg 194 175 0 \, 1 2000;
#X obj 282 149 sel 0;
#X obj 254 195 line;
#X msg 254 175 0 \, 1 2000;
#X obj 342 149 sel 0;
#X obj 314 195 line;
#X msg 314 175 0 \, 1 2000;
#X obj 402 149 sel 0;
#X obj 374 195 line;
#X msg 374 175 0 \, 1 2000;
#X obj 462 149 sel 0;
#X obj 434 195 line;
#X msg 434 175 0 \, 1 2000;
#X obj 522 149 sel 0;
#X obj 494 195 line;
#X msg 494 175 0 \, 1 2000;
#X obj 102 69 osc-rcv 55550 system1;
#X connect 3 0 19 0;
#X connect 4 0 22 0;
#X connect 5 0 25 0;
#X connect 6 0 28 0;
#X connect 7 0 31 0;
#X connect 8 0 34 0;
#X connect 9 0 37 0;
#X connect 10 0 40 0;
#X connect 19 1 21 0;
#X connect 20 0 11 0;
#X connect 21 0 20 0;
#X connect 22 1 24 0;
#X connect 23 0 12 0;
#X connect 24 0 23 0;
#X connect 25 1 27 0;
#X connect 26 0 13 0;
#X connect 27 0 26 0;
#X connect 28 1 30 0;
#X connect 29 0 14 0;
#X connect 30 0 29 0;
#X connect 31 1 33 0;
#X connect 32 0 15 0;
#X connect 33 0 32 0;
#X connect 34 1 36 0;
#X connect 35 0 16 0;
#X connect 36 0 35 0;
#X connect 37 1 39 0;
#X connect 38 0 17 0;
#X connect 39 0 38 0;
#X connect 40 1 42 0;
#X connect 41 0 18 0;
#X connect 42 0 41 0;
#X connect 43 0 3 0;
#X connect 43 1 4 0;
#X connect 43 2 5 0;
#X connect 43 3 6 0;
#X connect 43 4 7 0;
#X connect 43 5 8 0;
#X connect 43 6 9 0;
#X connect 43 7 10 0;
#X coords 0 -1 1 1 320 45 2 100 100;
#X restore 745 18 pd system2;
#X obj 21 305 tgl 15 0 empty empty empty 17 7 0 10 -262144 -1 -1 0
1;
#X obj 129 305 tgl 15 0 empty empty empty 17 7 0 10 -262144 -1 -1 0
1;
#X obj 21 417 delayA;
#X obj 242 417 delayA;
#N canvas 0 22 450 278 (subpatch) 0;
#X array sound2-2 2.46176e+06 float 2;
#X coords 0 1 2.46176e+06 -1 100 35 1 0 0;
#X restore 328 69 graph;
#N canvas 0 22 450 278 (subpatch) 0;
#X array sound2-1 2.56696e+06 float 2;
#X coords 0 1 2.56696e+06 -1 100 35 1 0 0;
#X restore 218 69 graph;
#N canvas 0 23 450 278 (subpatch) 0;
#X array sound2-4 2.21979e+06 float 2;
#X coords 0 1 2.21979e+06 -1 100 35 1 0 0;
#X restore 548 69 graph;
#N canvas 0 22 450 278 (subpatch) 0;
#X array sound2-3 2.39338e+06 float 2;
#X coords 0 1 2.39338e+06 -1 100 35 1 0 0;
#X restore 438 69 graph;
#X obj 21 323 playfile sound1-1;
#X obj 129 323 playfile sound1-2;
#X msg 746 225 20 0 200 0 200 0;
#X obj 31 365 tgl 15 0 empty empty empty 17 7 0 10 -262144 -1 -1 0
1;
#X obj 139 365 tgl 15 0 empty empty empty 17 7 0 10 -262144 -1 -1 0
1;
#X obj 31 383 playfile sound1-3;
#X obj 139 383 playfile sound1-4;
#X obj 194 152 hsl 128 15 0 100 0 0 empty empty empty -2 -8 0 10 -262144
-1 -1 0 0;
#N canvas 455 29 450 300 kaze 0;
#X obj 126 92 line;
#X floatatom 126 112 5 0 0 0 - - -;
#X obj 129 32 hsl 128 15 0 100 0 0 empty empty empty -2 -8 0 10 -262144
-1 -1 0 0;
#X obj 126 172 bng 15 250 50 0 empty empty empty 17 7 0 10 -262144
-1 -1;
#X obj 146 172 bng 15 250 50 0 empty empty empty 17 7 0 10 -262144
-1 -1;
#X obj 126 131 int;
#X msg 126 192 0;
#X msg 151 192 1;
#X obj 126 53 > 0;
#X obj 126 151 sel 0 1;
#X floatatom 143 245 5 0 0 0 - - -;
#X floatatom 203 245 5 0 0 0 - - -;
#X floatatom 263 245 5 0 0 0 - - -;
#X obj 126 13 inlet;
#X obj 85 274 outlet;
#X obj 145 274 outlet;
#X obj 205 274 outlet;
#X obj 265 274 outlet;
#X msg 126 72 \$1 100;
#X obj 143 225 pipe 2000;
#X obj 203 225 pipe 2000;
#X obj 263 225 pipe 2000;
#X connect 0 0 1 0;
#X connect 1 0 5 0;
#X connect 2 0 8 0;
#X connect 3 0 6 0;
#X connect 4 0 7 0;
#X connect 5 0 9 0;
#X connect 6 0 14 0;
#X connect 6 0 19 0;
#X connect 7 0 14 0;
#X connect 7 0 19 0;
#X connect 8 0 18 0;
#X connect 9 0 3 0;
#X connect 9 1 4 0;
#X connect 10 0 15 0;
#X connect 10 0 20 0;
#X connect 11 0 16 0;
#X connect 11 0 21 0;
#X connect 12 0 17 0;
#X connect 13 0 2 0;
#X connect 18 0 0 0;
#X connect 19 0 10 0;
#X connect 20 0 11 0;
#X connect 21 0 12 0;
#X restore 191 170 pd kaze;
#X f 9;
#X obj 471 225 tgl 15 0 empty empty empty 17 7 0 10 -262144 -1 -1 0
1;
#X obj 580 225 tgl 15 0 empty empty empty 17 7 0 10 -262144 -1 -1 0
1;
#X obj 481 275 tgl 15 0 empty empty empty 17 7 0 10 -262144 -1 -1 0
1;
#X obj 590 275 tgl 15 0 empty empty empty 17 7 0 10 -262144 -1 -1 0
1;
#X obj 481 293 playfile sound2-3;
#X obj 590 293 playfile sound2-4;
#X obj 580 243 playfile sound2-2;
#X obj 471 243 playfile sound2-1;
#X obj 231 305 tgl 15 0 empty empty empty 17 7 0 10 -262144 -1 -1 0
1;
#X obj 339 305 tgl 15 0 empty empty empty 17 7 0 10 -262144 -1 -1 0
1;
#X obj 231 323 playfile sound1-1;
#X obj 339 323 playfile sound1-2;
#X obj 241 365 tgl 15 0 empty empty empty 17 7 0 10 -262144 -1 -1 0
1;
#X obj 349 365 tgl 15 0 empty empty empty 17 7 0 10 -262144 -1 -1 0
1;
#X obj 241 383 playfile sound1-3;
#X obj 349 383 playfile sound1-4;
#N canvas 0 23 651 336 dmxled 0;
#X obj 112 270 osc-send localhost 12001 dmx;
#X obj 112 253 pack f f f f f f f f f f f f f f f f f f f f f f f f
;
#X obj 202 226 ledcolor 1000;
#X obj 292 226 ledcolor 1000;
#X obj 382 226 ledcolor 1000;
#X obj 112 183 osc-rcv-led 30000 led, f 24;
#X obj 112 226 ledcolor 1000;
#X text 111 111 NODE-RED;
#X text 111 126 kazenoutayomi1.local:1880;
#X text 111 146 DMX LED;
#X obj 153 66 inlet;
#X obj 243 66 inlet;
#X obj 333 66 inlet;
#X obj 423 66 inlet;
#X connect 1 0 0 0;
#X connect 2 0 1 6;
#X connect 2 1 1 7;
#X connect 2 2 1 8;
#X connect 2 3 1 9;
#X connect 2 4 1 10;
#X connect 2 5 1 11;
#X connect 3 0 1 12;
#X connect 3 1 1 13;
#X connect 3 2 1 14;
#X connect 3 3 1 15;
#X connect 3 4 1 16;
#X connect 3 5 1 17;
#X connect 4 0 1 18;
#X connect 4 1 1 19;
#X connect 4 2 1 20;
#X connect 4 3 1 21;
#X connect 4 4 1 22;
#X connect 4 5 1 23;
#X connect 5 0 6 0;
#X connect 5 1 2 0;
#X connect 5 2 3 0;
#X connect 5 3 4 0;
#X connect 6 0 1 0;
#X connect 6 1 1 1;
#X connect 6 2 1 2;
#X connect 6 3 1 3;
#X connect 6 4 1 4;
#X connect 6 5 1 5;
#X connect 10 0 6 1;
#X connect 11 0 2 1;
#X connect 12 0 3 1;
#X connect 13 0 4 1;
#X coords 0 -1 1 1 160 70 2 100 100;
#X restore 746 258 pd dmxled;
#X obj 28 282 r k1_1;
#X obj 138 282 r k1_2;
#X obj 38 342 r k1_3;
#X obj 148 342 r k1_4;
#X obj 238 282 r k2_1;
#X obj 348 282 r k2_2;
#X obj 248 342 r k2_3;
#X obj 358 342 r k2_4;
#X obj 131 190 s k1_1;
#X obj 171 190 s k1_2;
#X obj 211 190 s k2_1;
#X obj 251 190 s k2_2;
#X obj 364 152 hsl 128 15 0 100 0 0 empty empty empty -2 -8 0 10 -262144
-1 -1 0 0;
#N canvas 455 29 450 300 kaze 0;
#X obj 126 92 line;
#X floatatom 126 112 5 0 0 0 - - -;
#X obj 129 32 hsl 128 15 0 100 0 0 empty empty empty -2 -8 0 10 -262144
-1 -1 0 0;
#X obj 126 172 bng 15 250 50 0 empty empty empty 17 7 0 10 -262144
-1 -1;
#X obj 146 172 bng 15 250 50 0 empty empty empty 17 7 0 10 -262144
-1 -1;
#X obj 126 131 int;
#X msg 126 192 0;
#X msg 151 192 1;
#X obj 126 53 > 0;
#X obj 126 151 sel 0 1;
#X floatatom 143 245 5 0 0 0 - - -;
#X floatatom 203 245 5 0 0 0 - - -;
#X floatatom 263 245 5 0 0 0 - - -;
#X obj 126 13 inlet;
#X obj 85 274 outlet;
#X obj 145 274 outlet;
#X obj 205 274 outlet;
#X obj 265 274 outlet;
#X msg 126 72 \$1 100;
#X obj 143 225 pipe 2000;
#X obj 203 225 pipe 2000;
#X obj 263 225 pipe 2000;
#X connect 0 0 1 0;
#X connect 1 0 5 0;
#X connect 2 0 8 0;
#X connect 3 0 6 0;
#X connect 4 0 7 0;
#X connect 5 0 9 0;
#X connect 6 0 14 0;
#X connect 6 0 19 0;
#X connect 7 0 14 0;
#X connect 7 0 19 0;
#X connect 8 0 18 0;
#X connect 9 0 3 0;
#X connect 9 1 4 0;
#X connect 10 0 15 0;
#X connect 10 0 20 0;
#X connect 11 0 16 0;
#X connect 11 0 21 0;
#X connect 12 0 17 0;
#X connect 13 0 2 0;
#X connect 18 0 0 0;
#X connect 19 0 10 0;
#X connect 20 0 11 0;
#X connect 21 0 12 0;
#X restore 361 170 pd kaze;
#X f 9;
#X obj 301 190 s k1_3;
#X obj 341 190 s k1_4;
#X obj 381 190 s k2_3;
#X obj 421 190 s k2_4;
#X connect 1 0 2 0;
#X connect 8 0 9 0;
#X connect 8 1 10 0;
#X connect 8 2 11 0;
#X connect 8 3 12 0;
#X connect 9 0 21 0;
#X connect 10 0 22 0;
#X connect 13 4 14 0;
#X connect 13 5 14 1;
#X connect 13 6 14 2;
#X connect 14 0 17 0;
#X connect 14 0 18 0;
#X connect 17 0 15 0;
#X connect 18 0 16 0;
#X connect 19 0 31 0;
#X connect 21 0 29 0;
#X connect 22 0 30 0;
#X connect 23 0 0 0;
#X connect 24 0 0 1;
#X connect 29 0 23 0;
#X connect 30 0 23 0;
#X connect 32 0 34 0;
#X connect 33 0 35 0;
#X connect 34 0 23 0;
#X connect 35 0 23 0;
#X connect 36 0 37 0;
#X connect 37 0 63 0;
#X connect 37 1 64 0;
#X connect 37 2 65 0;
#X connect 37 3 66 0;
#X connect 38 0 45 0;
#X connect 39 0 44 0;
#X connect 40 0 42 0;
#X connect 41 0 43 0;
#X connect 46 0 48 0;
#X connect 47 0 49 0;
#X connect 48 0 24 0;
#X connect 49 0 24 0;
#X connect 50 0 52 0;
#X connect 51 0 53 0;
#X connect 52 0 24 0;
#X connect 53 0 24 0;
#X connect 55 0 21 0;
#X connect 56 0 22 0;
#X connect 57 0 32 0;
#X connect 58 0 33 0;
#X connect 59 0 46 0;
#X connect 60 0 47 0;
#X connect 61 0 50 0;
#X connect 62 0 51 0;
#X connect 67 0 68 0;
#X connect 68 0 69 0;
#X connect 68 1 70 0;
#X connect 68 2 71 0;
#X connect 68 3 72 0;
