#N canvas 0 97 1280 623 8;
#N canvas 420 248 695 407 finalout 0;
#X obj 425 106 metro 20;
#X obj 425 36 tgl 15 0 empty empty empty 17 7 0 10 -262144 -1 -1 1
1;
#X obj 425 10 loadbang;
#X msg 433 61 \; pd dsp \$1;
#X text 498 67 dsp on;
#X obj 258 359 dac~;
#X obj 109 136 cnv 15 60 40 empty empty empty 20 12 0 14 -262144 -66577
0;
#N canvas 0 50 450 278 (subpatch) 0;
#X array \$0-out-L 100 float 5;
#A 0 0 0 0 0 0 0 0 0 0 0 0 0 0 0 0 0 0 0 0 0 0 0 0 0 0 0 0 0 0 0 0
0 0 0 0 0 0 0 0 0 0 0 0 0 0 0 0 0 0 0 0 0 0 0 0 0 0 0 0 0 0 0 0 0 0
0 0 0 0 0 0 0 0 0 0 0 0 0 0 0 0 0 0 0 0 0 0 0 0 0 0 0 0 0 0 0 0 0 0
0;
#X coords 0 -1 99 1 60 40 2 0 0;
#X restore 110 136 graph;
#X obj 40 9 inlet~;
#X obj 176 141 vsl 15 32 0 1 0 1 empty empty empty 0 -9 0 10 -204786
-1 -1 1600 1;
#X text 175 102 VOL;
#X obj 40 41 *~;
#X obj 141 278 lop~ 16000;
#X obj 141 305 hip~ 5;
#X msg 424 182 room 0.9 \, damp 1.8 \, dry 0.4 \, wet 0.8;
#X obj 424 155 loadbang;
#X obj 176 118 tgl 15 0 empty empty empty 17 7 0 10 -262144 -1 -1 1
1;
#X obj 142 334 *~;
#X obj 141 246 vfreeverb~;
#X obj 202 109 vsl 15 64 0 1 0 1 empty empty empty 0 -9 0 10 -204800
-1 -1 5200 1;
#X obj 39 203 expr~ $v1*(1-$f2);
#X obj 140 203 expr~ $v1*$f2;
#X msg 316 76 1;
#X obj 316 53 loadbang;
#X text 103 102 LEFT;
#X obj 425 130 tabwrite~ \$0-out-L;
#X obj 525 130 tabwrite~ \$0-out-R;
#X obj 475 106 r~ \$0-final-L;
#X obj 557 106 r~ \$0-final-R;
#X obj 142 357 s~ \$0-final-L;
#X obj 342 278 lop~ 16000;
#X obj 342 305 hip~ 5;
#X obj 343 334 *~;
#X obj 342 246 vfreeverb~;
#X obj 343 357 s~ \$0-final-R;
#N canvas 0 50 450 278 (subpatch) 0;
#X array \$0-out-R 100 float 5;
#A 0 0 0 0 0 0 0 0 0 0 0 0 0 0 0 0 0 0 0 0 0 0 0 0 0 0 0 0 0 0 0 0
0 0 0 0 0 0 0 0 0 0 0 0 0 0 0 0 0 0 0 0 0 0 0 0 0 0 0 0 0 0 0 0 0 0
0 0 0 0 0 0 0 0 0 0 0 0 0 0 0 0 0 0 0 0 0 0 0 0 0 0 0 0 0 0 0 0 0 0
0;
#X coords 0 -1 99 1 60 40 1 0 0;
#X restore 250 136 graph;
#X obj 316 141 vsl 15 32 0 1 0 1 empty empty empty 0 -9 0 10 -204786
-1 -1 900 1;
#X text 315 102 VOL;
#X obj 316 118 tgl 15 0 empty empty empty 17 7 0 10 -262144 -1 -1 1
1;
#X obj 342 109 vsl 15 64 0 1 0 1 empty empty empty 0 -9 0 10 -204800
-1 -1 2100 1;
#X obj 241 203 expr~ $v1*(1-$f2);
#X obj 342 203 expr~ $v1*$f2;
#X obj 230 9 inlet~;
#X obj 230 41 *~;
#X text 243 102 RIGHT;
#X connect 0 0 25 0;
#X connect 0 0 26 0;
#X connect 1 0 0 0;
#X connect 1 0 3 0;
#X connect 2 0 1 0;
#X connect 8 0 11 0;
#X connect 9 0 11 1;
#X connect 11 0 20 0;
#X connect 11 0 21 0;
#X connect 12 0 13 0;
#X connect 13 0 17 0;
#X connect 14 0 18 2;
#X connect 14 0 33 2;
#X connect 15 0 14 0;
#X connect 16 0 17 1;
#X connect 17 0 29 0;
#X connect 17 0 5 0;
#X connect 18 0 12 0;
#X connect 19 0 20 1;
#X connect 19 0 21 1;
#X connect 20 0 12 0;
#X connect 21 0 18 0;
#X connect 22 0 16 0;
#X connect 22 0 38 0;
#X connect 23 0 22 0;
#X connect 27 0 25 0;
#X connect 28 0 26 0;
#X connect 30 0 31 0;
#X connect 31 0 32 0;
#X connect 32 0 34 0;
#X connect 32 0 5 1;
#X connect 33 0 30 0;
#X connect 36 0 43 1;
#X connect 38 0 32 1;
#X connect 39 0 41 0;
#X connect 39 0 40 0;
#X connect 40 0 30 0;
#X connect 41 0 33 0;
#X connect 42 0 43 0;
#X connect 43 0 40 0;
#X connect 43 0 41 0;
#X coords 0 -1 1 1 280 80 2 100 100;
#X restore 22 483 pd finalout;
#X obj 675 17 loadbang;
#X msg 675 45 \; pd dsp 1;
#N canvas 0 22 450 278 (subpatch) 0;
#X array soundfile2 1.54138e+06 float 2;
#X coords 0 1 1.54138e+06 -1 100 35 1 0 0;
#X restore 328 19 graph;
#N canvas 0 22 450 278 (subpatch) 0;
#X array soundfile1 980826 float 2;
#X coords 0 1 980826 -1 100 35 1 0 0;
#X restore 218 19 graph;
#N canvas 0 23 450 278 (subpatch) 0;
#X array soundfile4 2.50445e+06 float 2;
#X coords 0 1 2.50445e+06 -1 100 35 1 0 0;
#X restore 548 19 graph;
#N canvas 0 22 450 278 (subpatch) 0;
#X array soundfile3 3.6917e+06 float 2;
#X coords 0 1 3.6917e+06 -1 100 35 1 0 0;
#X restore 438 19 graph;
#N canvas 0 23 692 441 load_sounds 0;
#X obj 23 68 soundfiler;
#X obj 23 18 loadbang;
#X floatatom 23 92 15 0 0 0 - - -;
#X obj 23 117 / 44100;
#X floatatom 23 144 5 0 0 0 - - -;
#X text 69 145 bpsを秒に換算;
#X msg 23 44 read -resize sound/bell_1.wav soundfile1;
#X obj 341 66 soundfiler;
#X obj 341 16 loadbang;
#X floatatom 341 90 15 0 0 0 - - -;
#X obj 341 115 / 44100;
#X floatatom 341 142 5 0 0 0 - - -;
#X text 387 143 bpsを秒に換算;
#X msg 341 42 read -resize sound/bell_2.wav soundfile2;
#X obj 23 268 soundfiler;
#X obj 23 218 loadbang;
#X floatatom 23 292 15 0 0 0 - - -;
#X obj 23 317 / 44100;
#X floatatom 23 344 5 0 0 0 - - -;
#X text 69 345 bpsを秒に換算;
#X obj 341 266 soundfiler;
#X obj 341 216 loadbang;
#X floatatom 341 290 15 0 0 0 - - -;
#X obj 341 315 / 44100;
#X floatatom 341 342 5 0 0 0 - - -;
#X text 387 343 bpsを秒に換算;
#X msg 23 244 read -resize sound/bell_3.wav soundfile3;
#X msg 341 242 read -resize sound/bell_4.wav soundfile4;
#X connect 0 0 2 0;
#X connect 1 0 6 0;
#X connect 2 0 3 0;
#X connect 3 0 4 0;
#X connect 6 0 0 0;
#X connect 7 0 9 0;
#X connect 8 0 13 0;
#X connect 9 0 10 0;
#X connect 10 0 11 0;
#X connect 13 0 7 0;
#X connect 14 0 16 0;
#X connect 15 0 26 0;
#X connect 16 0 17 0;
#X connect 17 0 18 0;
#X connect 20 0 22 0;
#X connect 21 0 27 0;
#X connect 22 0 23 0;
#X connect 23 0 24 0;
#X connect 26 0 14 0;
#X connect 27 0 20 0;
#X restore 21 16 pd load_sounds;
#X obj 21 64 osc-rcv 12000 calion;
#X floatatom 21 89 5 0 0 0 - - -;
#X floatatom 61 89 5 0 0 0 - - -;
#X floatatom 101 89 5 0 0 0 - - -;
#X floatatom 141 89 5 0 0 0 - - -;
#X obj 878 123 CALENDAR;
#X obj 1068 171 pack 0 0 0;
#X obj 1068 226 bng 15 250 50 0 empty empty empty 17 7 0 10 -262144
-1 -1;
#X obj 1168 227 bng 15 250 50 0 empty empty empty 17 7 0 10 -262144
-1 -1;
#X obj 1068 199 watch 12 0 0;
#X obj 1168 199 watch 12 1 0;
#X obj 635 571 osc-send localhost 12001 dmx;
#X floatatom 925 374 5 0 0 0 - - -;
#X obj 775 256 line;
#X obj 1020 367 unpack f f f f f f;
#X obj 925 399 *;
#X obj 965 399 *;
#X obj 1005 399 *;
#X obj 1045 399 *;
#X obj 1085 399 *;
#X obj 1125 399 *;
#X obj 737 184 sel 1 0;
#X obj 737 160 tgl 15 0 empty empty empty 17 7 0 10 -262144 -1 -1 0
1;
#X floatatom 611 374 5 0 0 0 - - -;
#X obj 611 465 int;
#X floatatom 611 490 5 0 0 0 - - -;
#X obj 706 367 unpack f f f f f f;
#X obj 651 465 int;
#X floatatom 651 490 5 0 0 0 - - -;
#X obj 691 465 int;
#X floatatom 691 490 5 0 0 0 - - -;
#X obj 731 465 int;
#X floatatom 731 490 5 0 0 0 - - -;
#X obj 771 465 int;
#X floatatom 771 490 5 0 0 0 - - -;
#X obj 811 465 int;
#X floatatom 811 490 5 0 0 0 - - -;
#X obj 611 399 *;
#X obj 651 399 *;
#X obj 691 399 *;
#X obj 731 399 *;
#X obj 771 399 *;
#X obj 811 399 *;
#X msg 744 320 0 10 255 0 200 200;
#X obj 635 516 pack f f f f f f;
#X obj 611 444 +;
#X obj 651 444 +;
#X obj 691 444 +;
#X obj 731 444 +;
#X obj 771 444 +;
#X obj 811 444 +;
#X obj 925 346 expr 1-$f1;
#X obj 763 96 sel 0;
#X msg 856 223 0 1000;
#X msg 775 223 1 500;
#X msg 1078 320 0 0 0 0 0 0;
#N canvas 358 190 450 300 system2 0;
#X obj 102 69 osc-rcv 55560 system2;
#X obj 100 100 cnv 15 320 45 empty empty empty 20 12 0 14 -232832 -66577
0;
#X floatatom 102 124 5 0 0 0 - - -;
#X floatatom 142 124 5 0 0 0 - - -;
#X floatatom 182 124 5 0 0 0 - - -;
#X floatatom 222 124 5 0 0 0 - - -;
#X floatatom 262 124 5 0 0 0 - - -;
#X floatatom 302 124 5 0 0 0 - - -;
#X floatatom 342 124 5 0 0 0 - - -;
#X floatatom 382 124 5 0 0 0 - - -;
#X text 104 102 System 2;
#X obj 42 167 outlet;
#X obj 92 167 outlet;
#X obj 142 167 outlet;
#X obj 192 167 outlet;
#X obj 242 167 outlet;
#X obj 292 167 outlet;
#X obj 342 167 outlet;
#X obj 392 167 outlet;
#X text 351 102 osc 55560;
#X connect 0 0 2 0;
#X connect 0 1 3 0;
#X connect 0 2 4 0;
#X connect 0 3 5 0;
#X connect 0 4 6 0;
#X connect 0 5 7 0;
#X connect 0 6 8 0;
#X connect 0 7 9 0;
#X connect 2 0 11 0;
#X connect 3 0 12 0;
#X connect 4 0 13 0;
#X connect 5 0 14 0;
#X connect 6 0 15 0;
#X connect 7 0 16 0;
#X connect 8 0 17 0;
#X connect 9 0 18 0;
#X coords 0 -1 1 1 320 45 2 100 100;
#X restore 925 66 pd system2;
#N canvas 358 190 450 300 system2 0;
#X obj 100 100 cnv 15 320 45 empty empty empty 20 12 0 14 -241457 -66577
0;
#X floatatom 102 124 5 0 0 0 - - -;
#X floatatom 142 124 5 0 0 0 - - -;
#X floatatom 182 124 5 0 0 0 - - -;
#X floatatom 222 124 5 0 0 0 - - -;
#X floatatom 262 124 5 0 0 0 - - -;
#X floatatom 302 124 5 0 0 0 - - -;
#X floatatom 342 124 5 0 0 0 - - -;
#X floatatom 382 124 5 0 0 0 - - -;
#X text 104 102 System 1;
#X obj 102 69 osc-rcv 55550 system1;
#X obj 42 167 outlet;
#X obj 92 167 outlet;
#X obj 142 167 outlet;
#X obj 192 167 outlet;
#X obj 242 167 outlet;
#X obj 292 167 outlet;
#X obj 342 167 outlet;
#X obj 392 167 outlet;
#X text 351 102 osc 55550;
#X connect 1 0 11 0;
#X connect 2 0 12 0;
#X connect 3 0 13 0;
#X connect 4 0 14 0;
#X connect 5 0 15 0;
#X connect 6 0 16 0;
#X connect 7 0 17 0;
#X connect 8 0 18 0;
#X connect 10 0 1 0;
#X connect 10 1 2 0;
#X connect 10 2 3 0;
#X connect 10 3 4 0;
#X connect 10 4 5 0;
#X connect 10 5 6 0;
#X connect 10 6 7 0;
#X connect 10 7 8 0;
#X coords 0 -1 1 1 320 45 2 100 100;
#X restore 925 18 pd system2;
#X obj 1078 297 loadbang;
#X obj 744 297 loadbang;
#X obj 21 115 tgl 15 0 empty empty empty 17 7 0 10 -262144 -1 -1 0
1;
#X obj 21 133 playfile soundfile1;
#X obj 129 115 tgl 15 0 empty empty empty 17 7 0 10 -262144 -1 -1 0
1;
#X obj 238 115 tgl 15 0 empty empty empty 17 7 0 10 -262144 -1 -1 0
1;
#X obj 347 115 tgl 15 0 empty empty empty 17 7 0 10 -262144 -1 -1 0
1;
#X obj 129 133 playfile soundfile2;
#X obj 238 133 playfile soundfile3;
#X obj 347 133 playfile soundfile4;
#X obj 21 417 delayA;
#X obj 296 417 delayA;
#N canvas 0 22 450 278 (subpatch) 0;
#X array sound2-2 1.54138e+06 float 2;
#X coords 0 1 1.54138e+06 -1 100 35 1 0 0;
#X restore 338 69 graph;
#N canvas 0 22 450 278 (subpatch) 0;
#X array sound2-1 980826 float 2;
#X coords 0 1 980826 -1 100 35 1 0 0;
#X restore 228 69 graph;
#N canvas 0 23 450 278 (subpatch) 0;
#X array sound2-4 2.50445e+06 float 2;
#X coords 0 1 2.50445e+06 -1 100 35 1 0 0;
#X restore 558 69 graph;
#N canvas 0 22 450 278 (subpatch) 0;
#X array sound2-3 3.6917e+06 float 2;
#X coords 0 1 3.6917e+06 -1 100 35 1 0 0;
#X restore 448 69 graph;
#X msg 360 249 0 10 255 0 200 200;
#X msg 460 249 200 10 5 0 200 200;
#X msg 560 249 0 200 255 0 200 200;
#X floatatom 360 198 5 0 0 0 - - -;
#X obj 360 156 bng 15 250 50 0 empty empty empty 17 7 0 10 -262144
-1 -1;
#X obj 1078 342 r fade2;
#X obj 745 344 r fade1;
#X obj 433 212 % 2;
#X obj 360 178 counter 0 3;
#X obj 360 217 sel 0 1 2 3;
#X msg 670 249 0 0 0 0 0 100;
#X obj 360 276 unpack f f f f f f;
#X floatatom 360 296 5 0 0 0 - - -;
#X floatatom 390 296 5 0 0 0 - - -;
#X floatatom 420 296 5 0 0 0 - - -;
#X floatatom 450 296 5 0 0 0 - - -;
#X floatatom 480 296 5 0 0 0 - - -;
#X floatatom 510 296 5 0 0 0 - - -;
#X obj 360 335 line;
#X floatatom 360 385 5 0 0 0 - - -;
#X msg 360 315 \$1 1000;
#X obj 400 335 line;
#X floatatom 400 385 5 0 0 0 - - -;
#X msg 400 315 \$1 1000;
#X obj 440 335 line;
#X floatatom 440 385 5 0 0 0 - - -;
#X msg 440 315 \$1 1000;
#X obj 480 335 line;
#X floatatom 480 385 5 0 0 0 - - -;
#X msg 480 315 \$1 1000;
#X obj 520 335 line;
#X floatatom 520 385 5 0 0 0 - - -;
#X msg 520 315 \$1 1000;
#X obj 560 335 line;
#X floatatom 560 385 5 0 0 0 - - -;
#X msg 560 315 \$1 1000;
#X obj 360 404 pack f f f f f f;
#X obj 360 355 int;
#X obj 400 355 int;
#X obj 440 355 int;
#X obj 480 355 int;
#X obj 520 355 int;
#X obj 560 355 int;
#X connect 1 0 2 0;
#X connect 8 0 9 0;
#X connect 8 1 10 0;
#X connect 8 2 11 0;
#X connect 8 3 12 0;
#X connect 9 0 68 0;
#X connect 10 0 70 0;
#X connect 11 0 71 0;
#X connect 12 0 72 0;
#X connect 13 4 14 0;
#X connect 13 5 14 1;
#X connect 13 6 14 2;
#X connect 14 0 17 0;
#X connect 14 0 18 0;
#X connect 17 0 15 0;
#X connect 18 0 16 0;
#X connect 20 0 23 0;
#X connect 20 0 24 0;
#X connect 20 0 25 0;
#X connect 20 0 26 0;
#X connect 20 0 27 0;
#X connect 20 0 28 0;
#X connect 21 0 59 0;
#X connect 21 0 31 0;
#X connect 22 0 23 1;
#X connect 22 1 24 1;
#X connect 22 2 25 1;
#X connect 22 3 26 1;
#X connect 22 4 27 1;
#X connect 22 5 28 1;
#X connect 23 0 53 1;
#X connect 24 0 54 1;
#X connect 25 0 55 1;
#X connect 26 0 56 1;
#X connect 27 0 57 1;
#X connect 28 0 58 1;
#X connect 29 0 62 0;
#X connect 29 1 61 0;
#X connect 30 0 29 0;
#X connect 31 0 45 0;
#X connect 31 0 46 0;
#X connect 31 0 47 0;
#X connect 31 0 48 0;
#X connect 31 0 49 0;
#X connect 31 0 50 0;
#X connect 32 0 33 0;
#X connect 33 0 52 0;
#X connect 34 0 45 1;
#X connect 34 1 46 1;
#X connect 34 2 47 1;
#X connect 34 3 48 1;
#X connect 34 4 49 1;
#X connect 34 5 50 1;
#X connect 35 0 36 0;
#X connect 36 0 52 1;
#X connect 37 0 38 0;
#X connect 38 0 52 2;
#X connect 39 0 40 0;
#X connect 40 0 52 3;
#X connect 41 0 42 0;
#X connect 42 0 52 4;
#X connect 43 0 44 0;
#X connect 44 0 52 5;
#X connect 45 0 53 0;
#X connect 46 0 54 0;
#X connect 47 0 55 0;
#X connect 48 0 56 0;
#X connect 49 0 57 0;
#X connect 50 0 58 0;
#X connect 51 0 34 0;
#X connect 52 0 19 0;
#X connect 53 0 32 0;
#X connect 54 0 35 0;
#X connect 55 0 37 0;
#X connect 56 0 39 0;
#X connect 57 0 41 0;
#X connect 58 0 43 0;
#X connect 59 0 20 0;
#X connect 60 0 61 0;
#X connect 60 1 62 0;
#X connect 61 0 21 0;
#X connect 62 0 21 0;
#X connect 63 0 22 0;
#X connect 66 0 63 0;
#X connect 67 0 51 0;
#X connect 68 0 69 0;
#X connect 69 0 76 0;
#X connect 70 0 73 0;
#X connect 71 0 74 0;
#X connect 72 0 75 0;
#X connect 73 0 76 0;
#X connect 74 0 77 0;
#X connect 75 0 77 0;
#X connect 76 0 0 0;
#X connect 77 0 0 1;
#X connect 82 0 93 0;
#X connect 83 0 93 0;
#X connect 84 0 93 0;
#X connect 85 0 89 0;
#X connect 85 0 91 0;
#X connect 86 0 90 0;
#X connect 87 0 22 0;
#X connect 88 0 34 0;
#X connect 90 0 85 0;
#X connect 91 0 82 0;
#X connect 91 1 83 0;
#X connect 91 2 84 0;
#X connect 91 3 92 0;
#X connect 92 0 93 0;
#X connect 93 0 94 0;
#X connect 93 1 95 0;
#X connect 93 2 96 0;
#X connect 93 3 97 0;
#X connect 93 4 98 0;
#X connect 93 5 99 0;
#X connect 94 0 102 0;
#X connect 95 0 105 0;
#X connect 96 0 108 0;
#X connect 97 0 111 0;
#X connect 98 0 114 0;
#X connect 99 0 117 0;
#X connect 100 0 119 0;
#X connect 101 0 118 0;
#X connect 102 0 100 0;
#X connect 103 0 120 0;
#X connect 104 0 118 1;
#X connect 105 0 103 0;
#X connect 106 0 121 0;
#X connect 107 0 118 2;
#X connect 108 0 106 0;
#X connect 109 0 122 0;
#X connect 110 0 118 3;
#X connect 111 0 109 0;
#X connect 112 0 123 0;
#X connect 113 0 118 4;
#X connect 114 0 112 0;
#X connect 115 0 124 0;
#X connect 116 0 118 5;
#X connect 117 0 115 0;
#X connect 118 0 19 0;
#X connect 119 0 101 0;
#X connect 120 0 104 0;
#X connect 121 0 107 0;
#X connect 122 0 110 0;
#X connect 123 0 113 0;
#X connect 124 0 116 0;
