#N canvas 286 264 640 397 10;
#X obj 81 112 oscparse;
#X obj 81 138 route list;
#X obj 34 230 outlet;
#X obj 81 85 netreceive -u -b \$1;
#X obj 81 160 route \$2;
#X obj 84 230 outlet;
#X obj 134 230 outlet;
#X obj 184 230 outlet;
#X obj 234 230 outlet;
#X obj 284 230 outlet;
#X obj 334 230 outlet;
#X obj 384 230 outlet;
#X obj 444 230 outlet;
#X obj 494 230 outlet;
#X obj 544 230 outlet;
#X obj 594 230 outlet;
#X obj 644 230 outlet;
#X obj 694 230 outlet;
#X obj 744 230 outlet;
#X obj 794 230 outlet;
#X obj 81 181 unpack 0 0 0 0 0 0 0 0 0 0 0 0 0 0 0 0;
#X connect 0 0 1 0;
#X connect 1 0 4 0;
#X connect 3 0 0 0;
#X connect 4 0 20 0;
#X connect 20 0 2 0;
#X connect 20 1 5 0;
#X connect 20 2 6 0;
#X connect 20 3 7 0;
#X connect 20 4 8 0;
#X connect 20 5 9 0;
#X connect 20 6 10 0;
#X connect 20 7 11 0;
#X connect 20 8 12 0;
#X connect 20 9 13 0;
#X connect 20 10 14 0;
#X connect 20 11 15 0;
#X connect 20 12 16 0;
#X connect 20 13 17 0;
#X connect 20 14 18 0;
#X connect 20 15 19 0;
#X coords 0 -1 1 1 120 20 1 100 100;
