#N canvas 30 155 723 397 10;
#X obj 81 92 oscparse;
#X obj 81 115 route list;
#X obj 81 65 netreceive -u -b \$1;
#X obj 81 137 route \$2;
#X obj 81 161 unpack 0 0 0 0 0 0 0 0 0 0 0 0 0 0 0 0 0 0 0 0 0 0 0
0;
#X obj 81 189 pack f f f f f f;
#X obj 95 318 outlet;
#X obj 201 189 pack f f f f f f;
#X obj 331 189 pack f f f f f f;
#X obj 471 189 pack f f f f f f;
#X obj 95 265 list trim;
#X msg 95 288 9 19 5 9 19 5;
#X obj 95 242 list prepend set;
#X obj 81 212 t b l;
#X obj 215 318 outlet;
#X obj 215 265 list trim;
#X msg 215 288 9 19 5 9 19 5;
#X obj 215 242 list prepend set;
#X obj 201 212 t b l;
#X obj 345 318 outlet;
#X obj 345 265 list trim;
#X msg 345 288 9 19 5 9 19 5;
#X obj 345 242 list prepend set;
#X obj 331 212 t b l;
#X obj 485 318 outlet;
#X obj 485 265 list trim;
#X msg 485 288 9 19 5 9 19 5;
#X obj 485 242 list prepend set;
#X obj 471 212 t b l;
#X connect 0 0 1 0;
#X connect 1 0 3 0;
#X connect 2 0 0 0;
#X connect 3 0 4 0;
#X connect 4 0 5 0;
#X connect 4 1 5 1;
#X connect 4 2 5 2;
#X connect 4 3 5 3;
#X connect 4 4 5 4;
#X connect 4 5 5 5;
#X connect 4 6 7 0;
#X connect 4 7 7 1;
#X connect 4 8 7 2;
#X connect 4 9 7 3;
#X connect 4 10 7 4;
#X connect 4 11 7 5;
#X connect 4 12 8 0;
#X connect 4 13 8 1;
#X connect 4 14 8 2;
#X connect 4 15 8 3;
#X connect 4 16 8 4;
#X connect 4 17 8 5;
#X connect 4 18 9 0;
#X connect 4 19 9 1;
#X connect 4 20 9 2;
#X connect 4 21 9 3;
#X connect 4 22 9 4;
#X connect 4 23 9 5;
#X connect 5 0 13 0;
#X connect 7 0 18 0;
#X connect 8 0 23 0;
#X connect 9 0 28 0;
#X connect 10 0 11 0;
#X connect 11 0 6 0;
#X connect 12 0 10 0;
#X connect 13 0 11 0;
#X connect 13 1 12 0;
#X connect 15 0 16 0;
#X connect 16 0 14 0;
#X connect 17 0 15 0;
#X connect 18 0 16 0;
#X connect 18 1 17 0;
#X connect 20 0 21 0;
#X connect 21 0 19 0;
#X connect 22 0 20 0;
#X connect 23 0 21 0;
#X connect 23 1 22 0;
#X connect 25 0 26 0;
#X connect 26 0 24 0;
#X connect 27 0 25 0;
#X connect 28 0 26 0;
#X connect 28 1 27 0;
#X coords 0 397 1 396 320 20 0;
