#N canvas 400 23 450 300 10;
#X obj 88 222 hsl 50 15 0 1 0 0 empty empty empty -2 -8 0 10 -204786
-1 -1 0 1;
#X obj 77 242 *~;
#X obj 77 100 bng 15 250 50 0 empty empty empty 17 7 0 10 -262144 -1
-1;
#X msg 206 145 1;
#X text 143 219 volume;
#X obj 85 200 line;
#X msg 85 175 0 2000;
#X msg 145 175 1 2000;
#X obj 85 143 sel 0 1;
#X obj 30 22 inlet;
#X obj 77 267 outlet~;
#X obj 77 119 tabplay~;
#X obj 180 15 inlet;
#X obj 181 75 list trim;
#X obj 181 56 list prepend set;
#X obj 180 36 makefilename %d-\$1;
#X obj 181 94 t b a;
#X connect 0 0 1 1;
#X connect 1 0 10 0;
#X connect 2 0 11 0;
#X connect 3 0 2 0;
#X connect 5 0 0 0;
#X connect 6 0 5 0;
#X connect 7 0 5 0;
#X connect 8 0 6 0;
#X connect 8 1 7 0;
#X connect 9 0 8 0;
#X connect 11 0 1 0;
#X connect 11 1 3 0;
#X connect 12 0 15 0;
#X connect 13 0 16 0;
#X connect 14 0 13 0;
#X connect 15 0 14 0;
#X connect 16 0 2 0;
#X connect 16 1 11 0;
