#N canvas 39 146 450 300 10;
#X obj 166 197 outlet;
#X obj 165 60 inlet;
#X obj 165 125 route \$1;
#X obj 165 150 route \$2;
#X obj 165 173 sel \$3;
#X connect 1 0 2 0;
#X connect 2 0 3 0;
#X connect 3 0 4 0;
#X connect 4 0 0 0;
