#N canvas 0 50 450 300 8;
#X obj 113 120 vsl 15 32 0 1 0 1 empty empty delay 0 -9 0 10 -262144
-1 -1 600 1;
#X obj 158 68 inlet;
#X obj 248 176 *~;
#X obj 39 68 loadbang;
#X obj 105 68 inlet~;
#X obj 189 226 outlet~;
#X obj 249 205 delwrite~ \$0-delayA 1000;
#X obj 248 124 delread~ \$0-delayA \$1;
#X msg 286 94 500;
#X obj 286 68 loadbang;
#X obj 198 68 inlet;
#X obj 198 92 * 2;
#X connect 0 0 2 1;
#X connect 1 0 0 0;
#X connect 2 0 5 0;
#X connect 2 0 6 0;
#X connect 3 0 0 0;
#X connect 4 0 5 0;
#X connect 4 0 6 0;
#X connect 7 0 2 0;
#X connect 8 0 7 0;
#X connect 9 0 8 0;
#X connect 10 0 11 0;
#X connect 11 0 7 0;
#X coords 0 -1 1 1 60 60 2 100 100;
