#N canvas 658 23 1299 527 8;
#X obj 23 224 soundfiler;
#X obj 23 108 loadbang;
#X floatatom 23 241 15 0 0 0 - - -;
#X obj 23 257 / 44100;
#X floatatom 23 274 5 0 0 0 - - -;
#X text 69 275 bpsを秒に換算;
#N canvas 0 22 450 278 (subpatch) 0;
#X array \$0-sound1-1 2.54963e+06 float 2;
#X coords 0 1 2.54963e+06 -1 100 35 1 0 0;
#X restore 224 254 graph;
#X obj 45 163 list prepend set;
#X obj 45 180 list trim;
#X msg 23 206 read -resize sound/kaze/01.wav 2871-sound1-1;
#X obj 23 128 t b b;
#X obj 333 224 soundfiler;
#X obj 333 108 loadbang;
#X floatatom 333 241 15 0 0 0 - - -;
#X obj 333 257 / 44100;
#X floatatom 333 274 5 0 0 0 - - -;
#X text 379 275 bpsを秒に換算;
#N canvas 0 22 450 278 (subpatch) 0;
#X array \$0-sound1-2 3.58909e+06 float 2;
#X coords 0 1 3.58909e+06 -1 100 35 1 0 0;
#X restore 534 254 graph;
#X obj 355 163 list prepend set;
#X obj 355 180 list trim;
#X msg 333 206 read -resize sound/kaze/02.wav 2871-sound1-2;
#X obj 333 128 t b b;
#X obj 355 146 list prepend read -resize sound/kaze/02.wav \$0-sound1-2
;
#X obj 643 224 soundfiler;
#X obj 643 108 loadbang;
#X floatatom 643 241 15 0 0 0 - - -;
#X obj 643 257 / 44100;
#X floatatom 643 274 5 0 0 0 - - -;
#X text 689 275 bpsを秒に換算;
#N canvas 0 22 450 278 (subpatch) 0;
#X array \$0-sound1-3 9.3836e+06 float 2;
#X coords 0 1 9.3836e+06 -1 100 35 1 0 0;
#X restore 844 254 graph;
#X obj 665 163 list prepend set;
#X obj 665 180 list trim;
#X msg 643 206 read -resize sound/kaze/03.wav 2871-sound1-3;
#X obj 643 128 t b b;
#X obj 665 146 list prepend read -resize sound/kaze/03.wav \$0-sound1-3
;
#X obj 953 224 soundfiler;
#X obj 953 108 loadbang;
#X floatatom 953 241 15 0 0 0 - - -;
#X obj 953 257 / 44100;
#X floatatom 953 274 5 0 0 0 - - -;
#X text 999 275 bpsを秒に換算;
#N canvas 0 22 450 278 (subpatch) 0;
#X array \$0-sound1-4 7.38534e+06 float 2;
#X coords 0 1 7.38534e+06 -1 100 35 1 0 0;
#X restore 1154 254 graph;
#X obj 975 163 list prepend set;
#X obj 975 180 list trim;
#X msg 953 206 read -resize sound/kaze/04.wav 2871-sound1-4;
#X obj 953 128 t b b;
#X obj 975 146 list prepend read -resize sound/kaze/04.wav \$0-sound1-4
;
#X obj 23 444 soundfiler;
#X obj 23 328 loadbang;
#X floatatom 23 461 15 0 0 0 - - -;
#X obj 23 477 / 44100;
#X floatatom 23 494 5 0 0 0 - - -;
#X text 69 495 bpsを秒に換算;
#N canvas 0 22 450 278 (subpatch) 0;
#X array \$0-sound2-1 2.54963e+06 float 2;
#X coords 0 1 2.54963e+06 -1 100 35 1 0 0;
#X restore 224 474 graph;
#X obj 45 383 list prepend set;
#X obj 45 400 list trim;
#X msg 23 426 read -resize sound/kaze/01.wav 2871-sound2-1;
#X obj 23 348 t b b;
#X obj 333 444 soundfiler;
#X obj 333 328 loadbang;
#X floatatom 333 461 15 0 0 0 - - -;
#X obj 333 477 / 44100;
#X floatatom 333 494 5 0 0 0 - - -;
#X text 379 495 bpsを秒に換算;
#N canvas 0 22 450 278 (subpatch) 0;
#X array \$0-sound2-2 3.58909e+06 float 2;
#X coords 0 1 3.58909e+06 -1 100 35 1 0 0;
#X restore 534 474 graph;
#X obj 355 383 list prepend set;
#X obj 355 400 list trim;
#X msg 333 426 read -resize sound/kaze/02.wav 2871-sound2-2;
#X obj 333 348 t b b;
#X obj 643 444 soundfiler;
#X obj 643 328 loadbang;
#X floatatom 643 461 15 0 0 0 - - -;
#X obj 643 477 / 44100;
#X floatatom 643 494 5 0 0 0 - - -;
#X text 689 495 bpsを秒に換算;
#N canvas 0 22 450 278 (subpatch) 0;
#X array \$0-sound2-3 9.3836e+06 float 2;
#X coords 0 1 9.3836e+06 -1 100 35 1 0 0;
#X restore 844 474 graph;
#X obj 665 383 list prepend set;
#X obj 665 400 list trim;
#X msg 643 426 read -resize sound/kaze/03.wav 2871-sound2-3;
#X obj 643 348 t b b;
#X obj 953 444 soundfiler;
#X obj 953 328 loadbang;
#X floatatom 953 461 15 0 0 0 - - -;
#X obj 953 477 / 44100;
#X floatatom 953 494 5 0 0 0 - - -;
#X text 999 495 bpsを秒に換算;
#N canvas 0 22 450 278 (subpatch) 0;
#X array \$0-sound2-4 7.38534e+06 float 2;
#X coords 0 1 7.38534e+06 -1 100 35 1 0 0;
#X restore 1154 474 graph;
#X obj 975 383 list prepend set;
#X obj 975 400 list trim;
#X msg 953 426 read -resize sound/kaze/04.wav 2871-sound2-4;
#X obj 953 348 t b b;
#X obj 45 146 list prepend read -resize sound/kaze/01.wav \$0-sound1-1
;
#X obj 21 5 loadbang;
#X obj 93 53 list trim;
#X msg 84 70 2871;
#X obj 93 36 list prepend set \$0;
#X obj 21 45 t b b;
#X obj 84 87 outlet;
#X obj 70 5 inlet;
#X obj 21 25 del 500;
#X obj 45 366 list prepend read -resize sound/saezuri/01.wav \$0-sound2-1
;
#X obj 355 366 list prepend read -resize sound/saezuri/02.wav \$0-sound2-2
;
#X obj 665 366 list prepend read -resize sound/saezuri/03.wav \$0-sound2-3
;
#X obj 975 366 list prepend read -resize sound/saezuri/04.wav \$0-sound2-4
;
#X connect 0 0 2 0;
#X connect 1 0 10 0;
#X connect 2 0 3 0;
#X connect 3 0 4 0;
#X connect 7 0 8 0;
#X connect 8 0 9 0;
#X connect 9 0 0 0;
#X connect 10 0 9 0;
#X connect 10 1 91 0;
#X connect 11 0 13 0;
#X connect 12 0 21 0;
#X connect 13 0 14 0;
#X connect 14 0 15 0;
#X connect 18 0 19 0;
#X connect 19 0 20 0;
#X connect 20 0 11 0;
#X connect 21 0 20 0;
#X connect 21 1 22 0;
#X connect 22 0 18 0;
#X connect 23 0 25 0;
#X connect 24 0 33 0;
#X connect 25 0 26 0;
#X connect 26 0 27 0;
#X connect 30 0 31 0;
#X connect 31 0 32 0;
#X connect 32 0 23 0;
#X connect 33 0 32 0;
#X connect 33 1 34 0;
#X connect 34 0 30 0;
#X connect 35 0 37 0;
#X connect 36 0 45 0;
#X connect 37 0 38 0;
#X connect 38 0 39 0;
#X connect 42 0 43 0;
#X connect 43 0 44 0;
#X connect 44 0 35 0;
#X connect 45 0 44 0;
#X connect 45 1 46 0;
#X connect 46 0 42 0;
#X connect 47 0 49 0;
#X connect 48 0 57 0;
#X connect 49 0 50 0;
#X connect 50 0 51 0;
#X connect 54 0 55 0;
#X connect 55 0 56 0;
#X connect 56 0 47 0;
#X connect 57 0 56 0;
#X connect 57 1 100 0;
#X connect 58 0 60 0;
#X connect 59 0 68 0;
#X connect 60 0 61 0;
#X connect 61 0 62 0;
#X connect 65 0 66 0;
#X connect 66 0 67 0;
#X connect 67 0 58 0;
#X connect 68 0 67 0;
#X connect 68 1 101 0;
#X connect 69 0 71 0;
#X connect 70 0 79 0;
#X connect 71 0 72 0;
#X connect 72 0 73 0;
#X connect 76 0 77 0;
#X connect 77 0 78 0;
#X connect 78 0 69 0;
#X connect 79 0 78 0;
#X connect 79 1 102 0;
#X connect 80 0 82 0;
#X connect 81 0 90 0;
#X connect 82 0 83 0;
#X connect 83 0 84 0;
#X connect 87 0 88 0;
#X connect 88 0 89 0;
#X connect 89 0 80 0;
#X connect 90 0 89 0;
#X connect 90 1 103 0;
#X connect 91 0 7 0;
#X connect 92 0 99 0;
#X connect 93 0 94 0;
#X connect 94 0 97 0;
#X connect 95 0 93 0;
#X connect 96 0 94 0;
#X connect 96 1 95 0;
#X connect 98 0 99 0;
#X connect 99 0 96 0;
#X connect 100 0 54 0;
#X connect 101 0 65 0;
#X connect 102 0 76 0;
#X connect 103 0 87 0;
