#N canvas 82 97 1280 623 8;
#N canvas 420 248 695 407 finalout 0;
#X obj 425 106 metro 20;
#X obj 425 36 tgl 15 0 empty empty empty 17 7 0 10 -262144 -1 -1 1
1;
#X obj 425 10 loadbang;
#X msg 433 61 \; pd dsp \$1;
#X text 498 67 dsp on;
#X obj 258 359 dac~;
#X obj 109 136 cnv 15 60 40 empty empty empty 20 12 0 14 -262144 -66577
0;
#N canvas 0 50 450 278 (subpatch) 0;
#X array \$0-out-L 100 float 5;
#A 0 0 0 0 0 0 0 0 0 0 0 0 0 0 0 0 0 0 0 0 0 0 0 0 0 0 0 0 0 0 0 0
0 0 0 0 0 0 0 0 0 0 0 0 0 0 0 0 0 0 0 0 0 0 0 0 0 0 0 0 0 0 0 0 0 0
0 0 0 0 0 0 0 0 0 0 0 0 0 0 0 0 0 0 0 0 0 0 0 0 0 0 0 0 0 0 0 0 0 0
0;
#X coords 0 -1 99 1 60 40 2 0 0;
#X restore 110 136 graph;
#X obj 40 9 inlet~;
#X obj 176 141 vsl 15 32 0 1 0 1 empty empty empty 0 -9 0 10 -204786
-1 -1 1600 1;
#X text 175 102 VOL;
#X obj 40 41 *~;
#X obj 141 278 lop~ 16000;
#X obj 141 305 hip~ 5;
#X msg 424 182 room 0.9 \, damp 1.8 \, dry 0.4 \, wet 0.8;
#X obj 424 155 loadbang;
#X obj 176 118 tgl 15 0 empty empty empty 17 7 0 10 -262144 -1 -1 1
1;
#X obj 142 334 *~;
#X obj 141 246 vfreeverb~;
#X obj 202 109 vsl 15 64 0 1 0 1 empty empty empty 0 -9 0 10 -204800
-1 -1 5200 1;
#X obj 39 203 expr~ $v1*(1-$f2);
#X obj 140 203 expr~ $v1*$f2;
#X msg 316 76 1;
#X obj 316 53 loadbang;
#X text 103 102 LEFT;
#X obj 425 130 tabwrite~ \$0-out-L;
#X obj 525 130 tabwrite~ \$0-out-R;
#X obj 475 106 r~ \$0-final-L;
#X obj 557 106 r~ \$0-final-R;
#X obj 142 357 s~ \$0-final-L;
#X obj 342 278 lop~ 16000;
#X obj 342 305 hip~ 5;
#X obj 343 334 *~;
#X obj 342 246 vfreeverb~;
#X obj 343 357 s~ \$0-final-R;
#N canvas 0 50 450 278 (subpatch) 0;
#X array \$0-out-R 100 float 5;
#A 0 0 0 0 0 0 0 0 0 0 0 0 0 0 0 0 0 0 0 0 0 0 0 0 0 0 0 0 0 0 0 0
0 0 0 0 0 0 0 0 0 0 0 0 0 0 0 0 0 0 0 0 0 0 0 0 0 0 0 0 0 0 0 0 0 0
0 0 0 0 0 0 0 0 0 0 0 0 0 0 0 0 0 0 0 0 0 0 0 0 0 0 0 0 0 0 0 0 0 0
0;
#X coords 0 -1 99 1 60 40 1 0 0;
#X restore 250 136 graph;
#X obj 316 141 vsl 15 32 0 1 0 1 empty empty empty 0 -9 0 10 -204786
-1 -1 1500 1;
#X text 315 102 VOL;
#X obj 316 118 tgl 15 0 empty empty empty 17 7 0 10 -262144 -1 -1 1
1;
#X obj 342 109 vsl 15 64 0 1 0 1 empty empty empty 0 -9 0 10 -204800
-1 -1 4000 1;
#X obj 241 203 expr~ $v1*(1-$f2);
#X obj 342 203 expr~ $v1*$f2;
#X obj 230 9 inlet~;
#X obj 230 41 *~;
#X text 243 102 RIGHT;
#X connect 0 0 25 0;
#X connect 0 0 26 0;
#X connect 1 0 0 0;
#X connect 1 0 3 0;
#X connect 2 0 1 0;
#X connect 8 0 11 0;
#X connect 9 0 11 1;
#X connect 11 0 20 0;
#X connect 11 0 21 0;
#X connect 12 0 13 0;
#X connect 13 0 17 0;
#X connect 14 0 18 2;
#X connect 14 0 33 2;
#X connect 15 0 14 0;
#X connect 16 0 17 1;
#X connect 17 0 29 0;
#X connect 17 0 5 0;
#X connect 18 0 12 0;
#X connect 19 0 20 1;
#X connect 19 0 21 1;
#X connect 20 0 12 0;
#X connect 21 0 18 0;
#X connect 22 0 16 0;
#X connect 22 0 38 0;
#X connect 23 0 22 0;
#X connect 27 0 25 0;
#X connect 28 0 26 0;
#X connect 30 0 31 0;
#X connect 31 0 32 0;
#X connect 32 0 34 0;
#X connect 32 0 5 1;
#X connect 33 0 30 0;
#X connect 36 0 43 1;
#X connect 38 0 32 1;
#X connect 39 0 41 0;
#X connect 39 0 40 0;
#X connect 40 0 30 0;
#X connect 41 0 33 0;
#X connect 42 0 43 0;
#X connect 43 0 40 0;
#X connect 43 0 41 0;
#X coords 0 -1 1 1 280 80 2 100 100;
#X restore 22 483 pd finalout;
#X obj 675 17 loadbang;
#X msg 675 45 \; pd dsp 1;
#N canvas 0 22 450 278 (subpatch) 0;
#X array sound1-2 1.54138e+06 float 2;
#X coords 0 1 1.54138e+06 -1 100 35 1 0 0;
#X restore 328 19 graph;
#N canvas 0 22 450 278 (subpatch) 0;
#X array sound1-1 980826 float 2;
#X coords 0 1 980826 -1 100 35 1 0 0;
#X restore 218 19 graph;
#N canvas 0 23 450 278 (subpatch) 0;
#X array sound1-4 2.50445e+06 float 2;
#X coords 0 1 2.50445e+06 -1 100 35 1 0 0;
#X restore 548 19 graph;
#N canvas 0 22 450 278 (subpatch) 0;
#X array sound1-3 3.6917e+06 float 2;
#X coords 0 1 3.6917e+06 -1 100 35 1 0 0;
#X restore 438 19 graph;
#N canvas 0 23 692 441 load_sounds 0;
#X obj 23 68 soundfiler;
#X obj 23 18 loadbang;
#X floatatom 23 92 15 0 0 0 - - -;
#X obj 23 117 / 44100;
#X floatatom 23 144 5 0 0 0 - - -;
#X text 69 145 bpsを秒に換算;
#X obj 341 66 soundfiler;
#X obj 341 16 loadbang;
#X floatatom 341 90 15 0 0 0 - - -;
#X obj 341 115 / 44100;
#X floatatom 341 142 5 0 0 0 - - -;
#X text 387 143 bpsを秒に換算;
#X obj 23 268 soundfiler;
#X obj 23 218 loadbang;
#X floatatom 23 292 15 0 0 0 - - -;
#X obj 23 317 / 44100;
#X floatatom 23 344 5 0 0 0 - - -;
#X text 69 345 bpsを秒に換算;
#X obj 341 266 soundfiler;
#X obj 341 216 loadbang;
#X floatatom 341 290 15 0 0 0 - - -;
#X obj 341 315 / 44100;
#X floatatom 341 342 5 0 0 0 - - -;
#X text 387 343 bpsを秒に換算;
#X msg 23 44 read -resize sound/bell_1.wav sound1-1;
#X msg 341 42 read -resize sound/bell_2.wav sound1-2;
#X msg 341 242 read -resize sound/bell_4.wav sound1-4;
#X msg 23 244 read -resize sound/bell_3.wav sound1-3;
#X connect 0 0 2 0;
#X connect 1 0 24 0;
#X connect 2 0 3 0;
#X connect 3 0 4 0;
#X connect 6 0 8 0;
#X connect 7 0 25 0;
#X connect 8 0 9 0;
#X connect 9 0 10 0;
#X connect 12 0 14 0;
#X connect 13 0 27 0;
#X connect 14 0 15 0;
#X connect 15 0 16 0;
#X connect 18 0 20 0;
#X connect 19 0 26 0;
#X connect 20 0 21 0;
#X connect 21 0 22 0;
#X connect 24 0 0 0;
#X connect 25 0 6 0;
#X connect 26 0 18 0;
#X connect 27 0 12 0;
#X restore 21 16 pd load_sounds;
#X obj 21 74 osc-rcv 12000 calion;
#X floatatom 21 99 5 0 0 0 - - -;
#X floatatom 61 99 5 0 0 0 - - -;
#X floatatom 101 99 5 0 0 0 - - -;
#X floatatom 141 99 5 0 0 0 - - -;
#X obj 878 123 CALENDAR;
#X obj 1068 171 pack 0 0 0;
#X obj 1068 226 bng 15 250 50 0 empty empty empty 17 7 0 10 -262144
-1 -1;
#X obj 1168 227 bng 15 250 50 0 empty empty empty 17 7 0 10 -262144
-1 -1;
#X obj 1068 199 watch 12 0 0;
#X obj 1168 199 watch 12 1 0;
#X obj 392 548 osc-send localhost 12001 dmx;
#N canvas 358 190 450 300 system2 0;
#X obj 102 69 osc-rcv 55560 system2;
#X obj 100 100 cnv 15 320 45 empty empty empty 20 12 0 14 -232832 -66577
0;
#X floatatom 102 124 5 0 0 0 - - -;
#X floatatom 142 124 5 0 0 0 - - -;
#X floatatom 182 124 5 0 0 0 - - -;
#X floatatom 222 124 5 0 0 0 - - -;
#X floatatom 262 124 5 0 0 0 - - -;
#X floatatom 302 124 5 0 0 0 - - -;
#X floatatom 342 124 5 0 0 0 - - -;
#X floatatom 382 124 5 0 0 0 - - -;
#X text 104 102 System 2;
#X obj 42 167 outlet;
#X obj 92 167 outlet;
#X obj 142 167 outlet;
#X obj 192 167 outlet;
#X obj 242 167 outlet;
#X obj 292 167 outlet;
#X obj 342 167 outlet;
#X obj 392 167 outlet;
#X text 351 102 osc 55560;
#X connect 0 0 2 0;
#X connect 0 1 3 0;
#X connect 0 2 4 0;
#X connect 0 3 5 0;
#X connect 0 4 6 0;
#X connect 0 5 7 0;
#X connect 0 6 8 0;
#X connect 0 7 9 0;
#X connect 2 0 11 0;
#X connect 3 0 12 0;
#X connect 4 0 13 0;
#X connect 5 0 14 0;
#X connect 6 0 15 0;
#X connect 7 0 16 0;
#X connect 8 0 17 0;
#X connect 9 0 18 0;
#X coords 0 -1 1 1 320 45 2 100 100;
#X restore 925 66 pd system2;
#N canvas 358 190 450 300 system2 0;
#X obj 100 100 cnv 15 320 45 empty empty empty 20 12 0 14 -241457 -66577
0;
#X floatatom 102 124 5 0 0 0 - - -;
#X floatatom 142 124 5 0 0 0 - - -;
#X floatatom 182 124 5 0 0 0 - - -;
#X floatatom 222 124 5 0 0 0 - - -;
#X floatatom 262 124 5 0 0 0 - - -;
#X floatatom 302 124 5 0 0 0 - - -;
#X floatatom 342 124 5 0 0 0 - - -;
#X floatatom 382 124 5 0 0 0 - - -;
#X text 104 102 System 1;
#X obj 102 69 osc-rcv 55550 system1;
#X obj 42 167 outlet;
#X obj 92 167 outlet;
#X obj 142 167 outlet;
#X obj 192 167 outlet;
#X obj 242 167 outlet;
#X obj 292 167 outlet;
#X obj 342 167 outlet;
#X obj 392 167 outlet;
#X text 351 102 osc 55550;
#X connect 1 0 11 0;
#X connect 2 0 12 0;
#X connect 3 0 13 0;
#X connect 4 0 14 0;
#X connect 5 0 15 0;
#X connect 6 0 16 0;
#X connect 7 0 17 0;
#X connect 8 0 18 0;
#X connect 10 0 1 0;
#X connect 10 1 2 0;
#X connect 10 2 3 0;
#X connect 10 3 4 0;
#X connect 10 4 5 0;
#X connect 10 5 6 0;
#X connect 10 6 7 0;
#X connect 10 7 8 0;
#X coords 0 -1 1 1 320 45 2 100 100;
#X restore 925 18 pd system2;
#X obj 21 125 tgl 15 0 empty empty empty 17 7 0 10 -262144 -1 -1 0
1;
#X obj 129 125 tgl 15 0 empty empty empty 17 7 0 10 -262144 -1 -1 0
1;
#X obj 238 125 tgl 15 0 empty empty empty 17 7 0 10 -262144 -1 -1 0
1;
#X obj 347 125 tgl 15 0 empty empty empty 17 7 0 10 -262144 -1 -1 0
1;
#X obj 21 417 delayA;
#X obj 241 417 delayA;
#N canvas 0 22 450 278 (subpatch) 0;
#X array sound2-2 1.54138e+06 float 2;
#X coords 0 1 1.54138e+06 -1 100 35 1 0 0;
#X restore 328 69 graph;
#N canvas 0 22 450 278 (subpatch) 0;
#X array sound2-1 980826 float 2;
#X coords 0 1 980826 -1 100 35 1 0 0;
#X restore 218 69 graph;
#N canvas 0 23 450 278 (subpatch) 0;
#X array sound2-4 2.50445e+06 float 2;
#X coords 0 1 2.50445e+06 -1 100 35 1 0 0;
#X restore 548 69 graph;
#N canvas 0 22 450 278 (subpatch) 0;
#X array sound2-3 3.6917e+06 float 2;
#X coords 0 1 3.6917e+06 -1 100 35 1 0 0;
#X restore 438 69 graph;
#X floatatom 392 325 5 0 0 0 - - -;
#X obj 392 283 bng 15 250 50 0 empty empty empty 17 7 0 10 -262144
-1 -1;
#N canvas 0 50 450 300 ledcolor 0;
#X obj 111 90 unpack f f f f f f;
#X floatatom 111 110 5 0 0 0 - - -;
#X floatatom 141 110 5 0 0 0 - - -;
#X floatatom 171 110 5 0 0 0 - - -;
#X floatatom 201 110 5 0 0 0 - - -;
#X floatatom 231 110 5 0 0 0 - - -;
#X floatatom 261 110 5 0 0 0 - - -;
#X obj 111 148 line;
#X floatatom 111 185 5 0 0 0 - - -;
#X msg 111 128 \$1 1000;
#X obj 151 148 line;
#X floatatom 151 185 5 0 0 0 - - -;
#X msg 151 128 \$1 1000;
#X obj 191 148 line;
#X floatatom 191 185 5 0 0 0 - - -;
#X msg 191 128 \$1 1000;
#X obj 231 148 line;
#X floatatom 231 185 5 0 0 0 - - -;
#X msg 231 128 \$1 1000;
#X obj 271 148 line;
#X floatatom 271 185 5 0 0 0 - - -;
#X msg 271 128 \$1 1000;
#X obj 311 148 line;
#X floatatom 311 185 5 0 0 0 - - -;
#X msg 311 128 \$1 1000;
#X obj 111 168 int;
#X obj 151 168 int;
#X obj 191 168 int;
#X obj 231 168 int;
#X obj 271 168 int;
#X obj 311 168 int;
#X obj 93 39 inlet;
#X obj 100 218 outlet;
#X obj 140 218 outlet;
#X obj 180 218 outlet;
#X obj 220 218 outlet;
#X obj 260 218 outlet;
#X obj 300 218 outlet;
#X connect 0 0 1 0;
#X connect 0 1 2 0;
#X connect 0 2 3 0;
#X connect 0 3 4 0;
#X connect 0 4 5 0;
#X connect 0 5 6 0;
#X connect 1 0 9 0;
#X connect 2 0 12 0;
#X connect 3 0 15 0;
#X connect 4 0 18 0;
#X connect 5 0 21 0;
#X connect 6 0 24 0;
#X connect 7 0 25 0;
#X connect 8 0 32 0;
#X connect 9 0 7 0;
#X connect 10 0 26 0;
#X connect 11 0 33 0;
#X connect 12 0 10 0;
#X connect 13 0 27 0;
#X connect 14 0 34 0;
#X connect 15 0 13 0;
#X connect 16 0 28 0;
#X connect 17 0 35 0;
#X connect 18 0 16 0;
#X connect 19 0 29 0;
#X connect 20 0 36 0;
#X connect 21 0 19 0;
#X connect 22 0 30 0;
#X connect 23 0 37 0;
#X connect 24 0 22 0;
#X connect 25 0 8 0;
#X connect 26 0 11 0;
#X connect 27 0 14 0;
#X connect 28 0 17 0;
#X connect 29 0 20 0;
#X connect 30 0 23 0;
#X connect 31 0 0 0;
#X restore 392 427 pd ledcolor;
#X obj 392 481 pack f f f f f f f f f f f f f f f f f f f f f f f f
;
#X obj 395 256 metro 2000;
#X obj 396 235 tgl 15 0 empty empty empty 17 7 0 10 -262144 -1 -1 0
1;
#X obj 392 305 counter 0 4;
#X obj 392 344 sel 0 1 2 3 4;
#X obj 21 143 playfile sound1-1;
#X obj 129 143 playfile sound1-2;
#X obj 238 143 playfile sound1-3;
#X obj 347 143 playfile sound1-4;
#X msg 593 376 0 20 25 0 0 2;
#X msg 757 376 20 10 0 0 0 7;
#X msg 492 376 2 10 5 0 20 2;
#X msg 392 376 0 10 50 0 2 2;
#X msg 677 376 0 0 0 0 0 2;
#X obj 461 183 osc-rcv 30000 led;
#X floatatom 461 213 5 0 0 0 - - -;
#X floatatom 491 213 5 0 0 0 - - -;
#X floatatom 521 213 5 0 0 0 - - -;
#X connect 1 0 2 0;
#X connect 8 0 9 0;
#X connect 8 1 10 0;
#X connect 8 2 11 0;
#X connect 8 3 12 0;
#X connect 9 0 22 0;
#X connect 10 0 23 0;
#X connect 11 0 24 0;
#X connect 12 0 25 0;
#X connect 13 4 14 0;
#X connect 13 5 14 1;
#X connect 13 6 14 2;
#X connect 14 0 17 0;
#X connect 14 0 18 0;
#X connect 17 0 15 0;
#X connect 18 0 16 0;
#X connect 22 0 40 0;
#X connect 23 0 41 0;
#X connect 24 0 42 0;
#X connect 25 0 43 0;
#X connect 26 0 0 0;
#X connect 27 0 0 1;
#X connect 32 0 39 0;
#X connect 33 0 38 0;
#X connect 34 0 35 0;
#X connect 34 1 35 1;
#X connect 34 2 35 2;
#X connect 34 3 35 3;
#X connect 34 4 35 4;
#X connect 34 5 35 5;
#X connect 35 0 19 0;
#X connect 36 0 33 0;
#X connect 37 0 36 0;
#X connect 38 0 32 0;
#X connect 39 0 47 0;
#X connect 39 1 46 0;
#X connect 39 2 44 0;
#X connect 39 3 48 0;
#X connect 39 4 45 0;
#X connect 40 0 26 0;
#X connect 41 0 26 0;
#X connect 42 0 27 0;
#X connect 43 0 27 0;
#X connect 44 0 34 0;
#X connect 45 0 34 0;
#X connect 46 0 34 0;
#X connect 47 0 34 0;
#X connect 48 0 34 0;
#X connect 49 0 50 0;
#X connect 49 1 51 0;
#X connect 49 2 52 0;
