#N canvas 351 130 450 300 10;
#X obj 71 62 oscparse;
#X obj 71 88 route list;
#X obj 71 35 netreceive -u -b 10000;
#X obj 71 134 route RTC;
#X obj 41 237 print;
#X obj 41 201 route Y;
#X obj 91 237 print;
#X obj 91 201 route M;
#X obj 141 237 print;
#X obj 191 237 print;
#X obj 141 201 route D;
#X obj 191 201 route W;
#X obj 241 237 print;
#X obj 291 237 print;
#X obj 341 237 print;
#X obj 241 201 route H;
#X obj 291 201 route M;
#X obj 341 201 route S;
#X connect 0 0 1 0;
#X connect 1 0 3 0;
#X connect 2 0 0 0;
#X connect 3 0 5 0;
#X connect 3 0 7 0;
#X connect 3 0 10 0;
#X connect 3 0 11 0;
#X connect 3 0 15 0;
#X connect 5 0 4 0;
#X connect 7 0 6 0;
#X connect 10 0 8 0;
#X connect 11 0 9 0;
#X connect 15 0 12 0;
#X connect 16 0 13 0;
#X connect 17 0 14 0;
